SplineFontDB: 3.0
FontName: Crisa-Light
FullName: Crisa Light
FamilyName: Crisa
Weight: Light
Copyright: Copyright (c) 2011-2015 by tyPoland Lukasz Dziedzic (http://www.typoland.com/) with Reserved Font Name "Lato". Licensed under the SIL Open Font License, Version 1.1 (http://scripts.sil.org/OFL). \n\nModified into Crisa for Lojban/Zbalermorna in 2019 by Jack Humbert.
Version: 2.015; 2015-08-06; http://www.latofonts.com/
ItalicAngle: 0
UnderlinePosition: -510
UnderlineWidth: 59
Ascent: 1518
Descent: 505
InvalidEm: 0
sfntRevision: 0x000203d7
LayerCount: 2
Layer: 0 0 "Back" 1
Layer: 1 0 "Fore" 0
XUID: [1021 647 -312734098 6428]
StyleMap: 0x0040
FSType: 0
OS2Version: 3
OS2_WeightWidthSlopeOnly: 0
OS2_UseTypoMetrics: 0
CreationTime: 1438840825
ModificationTime: 1567285857
PfmFamily: 17
TTFWeight: 300
TTFWidth: 5
LineGap: 0
VLineGap: 0
Panose: 2 15 5 2 2 2 4 3 2 3
OS2TypoAscent: 1610
OS2TypoAOffset: 0
OS2TypoDescent: -390
OS2TypoDOffset: 0
OS2TypoLinegap: 400
OS2WinAscent: 1974
OS2WinAOffset: 0
OS2WinDescent: 426
OS2WinDOffset: 0
HheadAscent: 1974
HheadAOffset: 0
HheadDescent: -426
HheadDOffset: 0
OS2SubXSize: 1400
OS2SubYSize: 1300
OS2SubXOff: 0
OS2SubYOff: 280
OS2SupXSize: 1400
OS2SupYSize: 1300
OS2SupXOff: 0
OS2SupYOff: 954
OS2StrikeYSize: 59
OS2StrikeYPos: 526
OS2CapHeight: 1415
OS2XHeight: 995
OS2Vendor: 'tyPL'
OS2CodePages: 2000019f.00000000
OS2UnicodeRanges: e10002ff.5000ecff.00000021.00000000
Lookup: 4 0 1 "zlmFF" { "zlmFF subtable"  } ['liga' ('latn' <'dflt' > 'DFLT' <'dflt' > ) ]
Lookup: 4 0 1 "zlmSFF" { "zlmSFF subtable"  } ['liga' ('latn' <'dflt' > 'DFLT' <'dflt' > ) ]
Lookup: 4 0 1 "zlmSF" { "zlmSF subtable"  } ['liga' ('latn' <'dflt' > 'DFLT' <'dflt' > ) ]
Lookup: 6 0 0 "zlmW" { "zlmW contextual 0"  "zlmW contextual 1"  "zlmW contextual 2"  "zlmW contextual 3"  } ['liga' ('latn' <'dflt' > 'DFLT' <'dflt' > ) ]
Lookup: 1 0 0 "Single Substitution lookup 4" { "Single Substitution lookup 4 subtable"  } []

StartChar: exclam
Encoding: 33 33 1
Width: 509
VWidth: 2000
Flags: W
HStem: -15 185<187.331 330.581>
VStem: 160 185<12.3312 155.581> 209 93<488.748 1415>
LayerCount: 2
Fore
SplineSet
302 1415 m 1xa0
 302 843 l 2
 302 813 301.666666667 784.666666667 301 758 c 0
 300.333333333 731.333333333 299.5 704.166666667 298.5 676.5 c 0
 297.5 648.833333333 296 619.666666667 294 589 c 0
 292 558.333333333 290 524.333333333 288 487 c 1
 223 487 l 1
 221 524.333333333 219 558.333333333 217 589 c 0
 215 619.666666667 213.5 648.833333333 212.5 676.5 c 0
 211.5 704.166666667 210.666666667 731.333333333 210 758 c 0
 209.333333333 784.666666667 209 813 209 843 c 2
 209 1415 l 1
 302 1415 l 1xa0
160 77 m 0xc0
 160 89.6666666667 162.333333333 101.666666667 167 113 c 0
 171.666666667 124.333333333 178.166666667 134.166666667 186.5 142.5 c 0
 194.833333333 150.833333333 204.5 157.5 215.5 162.5 c 0
 226.5 167.5 238.666666667 170 252 170 c 0
 264.666666667 170 276.666666667 167.5 288 162.5 c 0
 299.333333333 157.5 309.166666667 150.833333333 317.5 142.5 c 0
 325.833333333 134.166666667 332.5 124.333333333 337.5 113 c 0
 342.5 101.666666667 345 89.6666666667 345 77 c 0
 345 63.6666666667 342.5 51.5 337.5 40.5 c 0
 332.5 29.5 325.833333333 19.8333333333 317.5 11.5 c 0
 309.166666667 3.16666666667 299.333333333 -3.33333333333 288 -8 c 0
 276.666666667 -12.6666666667 264.666666667 -15 252 -15 c 0
 226 -15 204.166666667 -6.16666666667 186.5 11.5 c 0
 168.833333333 29.1666666667 160 51 160 77 c 0xc0
EndSplineSet
EndChar

StartChar: question
Encoding: 63 63 2
Width: 864
VWidth: 2000
Flags: W
HStem: -15 185<323.331 466.581> 1353 78<250.53 565.006>
VStem: 296 185<12.3312 155.581> 358 65<487 651> 674 90<973.393 1256.87>
LayerCount: 2
Fore
SplineSet
94 1292 m 1xd8
 112 1310 132.333333333 1327.33333333 155 1344 c 0
 177.666666667 1360.66666667 202.5 1375.5 229.5 1388.5 c 0
 256.5 1401.5 286 1411.83333333 318 1419.5 c 0
 350 1427.16666667 384.666666667 1431 422 1431 c 0
 468 1431 511.833333333 1424 553.5 1410 c 0
 595.166666667 1396 631.5 1376 662.5 1350 c 0
 693.5 1324 718.166666667 1292.16666667 736.5 1254.5 c 0
 754.833333333 1216.83333333 764 1174.66666667 764 1128 c 0
 764 1077.33333333 756.166666667 1033.66666667 740.5 997 c 0
 724.833333333 960.333333333 705 928.166666667 681 900.5 c 0
 657 872.833333333 631 848.5 603 827.5 c 0
 575 806.5 548.666666667 786.833333333 524 768.5 c 0
 499.333333333 750.166666667 478.5 731.666666667 461.5 713 c 0
 444.5 694.333333333 435.333333333 673.666666667 434 651 c 2
 423 487 l 1
 358 487 l 1
 352 658 l 2
 350.666666667 686 357.666666667 710.666666667 373 732 c 0
 388.333333333 753.333333333 408 773.666666667 432 793 c 0
 456 812.333333333 482 832 510 852 c 0
 538 872 564.166666667 894.666666667 588.5 920 c 0
 612.833333333 945.333333333 633.166666667 974.333333333 649.5 1007 c 0
 665.833333333 1039.66666667 674 1078.66666667 674 1124 c 0
 674 1160 667 1192.16666667 653 1220.5 c 0
 639 1248.83333333 620 1272.83333333 596 1292.5 c 0
 572 1312.16666667 544.333333333 1327.16666667 513 1337.5 c 0
 481.666666667 1347.83333333 449 1353 415 1353 c 0
 371 1353 332.833333333 1347.16666667 300.5 1335.5 c 0
 268.166666667 1323.83333333 241 1310.83333333 219 1296.5 c 0
 197 1282.16666667 179.666666667 1269.16666667 167 1257.5 c 0
 154.333333333 1245.83333333 145.666666667 1240 141 1240 c 0
 131 1240 123.666666667 1244 119 1252 c 2
 94 1292 l 1xd8
296 77 m 0xe8
 296 89.6666666667 298.333333333 101.666666667 303 113 c 0
 307.666666667 124.333333333 314.166666667 134.166666667 322.5 142.5 c 0
 330.833333333 150.833333333 340.5 157.5 351.5 162.5 c 0
 362.5 167.5 374.666666667 170 388 170 c 0
 400.666666667 170 412.666666667 167.5 424 162.5 c 0
 435.333333333 157.5 445.166666667 150.833333333 453.5 142.5 c 0
 461.833333333 134.166666667 468.5 124.333333333 473.5 113 c 0
 478.5 101.666666667 481 89.6666666667 481 77 c 0
 481 63.6666666667 478.5 51.5 473.5 40.5 c 0
 468.5 29.5 461.833333333 19.8333333333 453.5 11.5 c 0
 445.166666667 3.16666666667 435.333333333 -3.33333333333 424 -8 c 0
 412.666666667 -12.6666666667 400.666666667 -15 388 -15 c 0
 362 -15 340.166666667 -6.16666666667 322.5 11.5 c 0
 304.833333333 29.1666666667 296 51 296 77 c 0xe8
EndSplineSet
EndChar

StartChar: semicolon
Encoding: 59 59 3
Width: 502
VWidth: 2000
Flags: W
HStem: -4 174<187.754 277.258> 782 185<185.331 328.581>
VStem: 166 174<21.7847 139.574 809.331 954.324>
LayerCount: 2
Fore
SplineSet
158 874 m 0
 158 886.666992188 160.333007812 898.666992188 165 910 c 0
 169.666992188 921.333007812 176.166992188 931.166992188 184.5 939.5 c 0
 192.833007812 947.833007812 202.5 954.5 213.5 959.5 c 0
 224.5 964.5 236.666992188 967 250 967 c 0
 262.666992188 967 274.666992188 964.5 286 959.5 c 0
 297.333007812 954.5 307.166992188 947.833007812 315.5 939.5 c 0
 323.833007812 931.166992188 330.5 921.333007812 335.5 910 c 0
 340.5 898.666992188 343 886.666992188 343 874 c 0
 343 860.666992188 340.5 848.5 335.5 837.5 c 0
 330.5 826.5 323.833007812 816.833007812 315.5 808.5 c 0
 307.166992188 800.166992188 297.333007812 793.666992188 286 789 c 0
 274.666992188 784.333007812 262.666992188 782 250 782 c 0
 224 782 202.166992188 790.833007812 184.5 808.5 c 0
 166.833007812 826.166992188 158 848 158 874 c 0
174 -238 m 2
 170.666992188 -235.333007812 168.5 -232.666992188 167.5 -230 c 0
 166.5 -227.333007812 166 -224.333007812 166 -221 c 0
 166 -217 168.666992188 -211.666992188 174 -205 c 0
 180 -198.333007812 188.166992188 -188.5 198.5 -175.5 c 0
 208.833007812 -162.5 219.5 -147.166992188 230.5 -129.5 c 0
 241.5 -111.833007812 251.5 -92 260.5 -70 c 0
 269.5 -48 275.333007812 -24.3330078125 278 1 c 1
 268 -2.3330078125 257.666992188 -4 247 -4 c 0
 222.333007812 -4 202.166992188 4.3330078125 186.5 21 c 0
 170.833007812 37.6669921875 163 59 163 85 c 0
 163 108.333007812 171 128.333007812 187 145 c 0
 203 161.666992188 224 170 250 170 c 0
 278.666992188 170 300.833007812 160.166992188 316.5 140.5 c 0
 332.166992188 120.833007812 340 95 340 63 c 0
 340 35.6669921875 336.5 7.8330078125 329.5 -20.5 c 0
 322.5 -48.8330078125 312.333007812 -76.6669921875 299 -104 c 0
 285.666992188 -131.333007812 269.666992188 -157.666992188 251 -183 c 0
 232.333007812 -208.333007812 211.666992188 -231.666992188 189 -253 c 1
 174 -238 l 2
EndSplineSet
EndChar

StartChar: colon
Encoding: 58 58 4
Width: 480
VWidth: 2000
Flags: W
HStem: -15 185<174.331 317.581> 782 185<174.331 317.581>
VStem: 147 185<12.3312 155.581 809.331 952.581>
LayerCount: 2
Fore
SplineSet
147 874 m 0
 147 886.666992188 149.333007812 898.666992188 154 910 c 0
 158.666992188 921.333007812 165.166992188 931.166992188 173.5 939.5 c 0
 181.833007812 947.833007812 191.5 954.5 202.5 959.5 c 0
 213.5 964.5 225.666992188 967 239 967 c 0
 251.666992188 967 263.666992188 964.5 275 959.5 c 0
 286.333007812 954.5 296.166992188 947.833007812 304.5 939.5 c 0
 312.833007812 931.166992188 319.5 921.333007812 324.5 910 c 0
 329.5 898.666992188 332 886.666992188 332 874 c 0
 332 860.666992188 329.5 848.5 324.5 837.5 c 0
 319.5 826.5 312.833007812 816.833007812 304.5 808.5 c 0
 296.166992188 800.166992188 286.333007812 793.666992188 275 789 c 0
 263.666992188 784.333007812 251.666992188 782 239 782 c 0
 213 782 191.166992188 790.833007812 173.5 808.5 c 0
 155.833007812 826.166992188 147 848 147 874 c 0
147 77 m 0
 147 89.6669921875 149.333007812 101.666992188 154 113 c 0
 158.666992188 124.333007812 165.166992188 134.166992188 173.5 142.5 c 0
 181.833007812 150.833007812 191.5 157.5 202.5 162.5 c 0
 213.5 167.5 225.666992188 170 239 170 c 0
 251.666992188 170 263.666992188 167.5 275 162.5 c 0
 286.333007812 157.5 296.166992188 150.833007812 304.5 142.5 c 0
 312.833007812 134.166992188 319.5 124.333007812 324.5 113 c 0
 329.5 101.666992188 332 89.6669921875 332 77 c 0
 332 63.6669921875 329.5 51.5 324.5 40.5 c 0
 319.5 29.5 312.833007812 19.8330078125 304.5 11.5 c 0
 296.166992188 3.1669921875 286.333007812 -3.3330078125 275 -8 c 0
 263.666992188 -12.6669921875 251.666992188 -15 239 -15 c 0
 213 -15 191.166992188 -6.1669921875 173.5 11.5 c 0
 155.833007812 29.1669921875 147 51 147 77 c 0
EndSplineSet
EndChar

StartChar: guillemotleft
Encoding: 171 171 5
Width: 794
VWidth: 2000
Flags: W
LayerCount: 2
Fore
SplineSet
648 197 m 2
 660.666992188 175 657.333007812 159 638 149 c 2
 608 134 l 1
 367 513 l 1
 367 526 l 1
 608 904 l 1
 638 889 l 2
 657.333007812 879 660.666992188 863 648 841 c 2
 465 548 l 2
 456.333007812 534 448.666992188 524.333007812 442 519 c 1
 448 514.333007812 455.666992188 505 465 491 c 2
 648 197 l 2
393 197 m 2
 405.666992188 175 402.333007812 159 383 149 c 2
 353 134 l 1
 112 513 l 1
 112 526 l 1
 353 904 l 1
 383 889 l 2
 402.333007812 879 405.666992188 863 393 841 c 2
 210 548 l 2
 201.333007812 534 193.666992188 524.333007812 187 519 c 1
 193 514.333007812 200.666992188 505 210 491 c 2
 393 197 l 2
EndSplineSet
EndChar

StartChar: guillemotright
Encoding: 187 187 6
Width: 795
VWidth: 2000
Flags: W
LayerCount: 2
Fore
SplineSet
683 526 m 1
 683 513 l 1
 442 134 l 1
 412 149 l 2
 392.666992188 159 389.333007812 175 402 197 c 2
 585 491 l 2
 594.333007812 505 602 514.333007812 608 519 c 1
 601.333007812 524.333007812 593.666992188 534 585 548 c 2
 402 841 l 2
 389.333007812 863 392.666992188 879 412 889 c 2
 442 904 l 1
 683 526 l 1
428 526 m 1
 428 513 l 1
 187 134 l 1
 157 149 l 2
 137.666992188 159 134.333007812 175 147 197 c 2
 330 491 l 2
 339.333007812 505 347 514.333007812 353 519 c 1
 346.333007812 524.333007812 338.666992188 534 330 548 c 2
 147 841 l 2
 134.333007812 863 137.666992188 879 157 889 c 2
 187 904 l 1
 428 526 l 1
EndSplineSet
EndChar

StartChar: parenleft
Encoding: 40 40 7
Width: 516
VWidth: 2000
Flags: W
VStem: 110 84<272.119 988.825>
LayerCount: 2
Fore
SplineSet
194 630 m 0
 194 480.666666667 214.166666667 337.5 254.5 200.5 c 0
 294.833333333 63.5 355 -68.6666666667 435 -196 c 0
 441.666666667 -207.333333333 443.5 -216.5 440.5 -223.5 c 0
 437.5 -230.5 433.333333333 -235.666666667 428 -239 c 2
 386 -265 l 1
 334.666666667 -186.333333333 291.5 -110.166666667 256.5 -36.5 c 0
 221.5 37.1666666667 193.166666667 110.5 171.5 183.5 c 0
 149.833333333 256.5 134.166666667 329.666666667 124.5 403 c 0
 114.833333333 476.333333333 110 552 110 630 c 256
 110 708 114.833333333 783.833333333 124.5 857.5 c 0
 134.166666667 931.166666667 149.833333333 1004.5 171.5 1077.5 c 0
 193.166666667 1150.5 221.5 1223.83333333 256.5 1297.5 c 0
 291.5 1371.16666667 334.666666667 1447.33333333 386 1526 c 1
 428 1500 l 2
 433.333333333 1496.66666667 437.5 1491.5 440.5 1484.5 c 0
 443.5 1477.5 441.666666667 1468.33333333 435 1457 c 0
 355 1329.66666667 294.833333333 1197.5 254.5 1060.5 c 0
 214.166666667 923.5 194 780 194 630 c 0
EndSplineSet
EndChar

StartChar: parenright
Encoding: 41 41 8
Width: 516
VWidth: 2000
Flags: W
VStem: 322 84<272.119 988.825>
LayerCount: 2
Fore
SplineSet
322 630 m 0
 322 780 301.833333333 923.5 261.5 1060.5 c 0
 221.166666667 1197.5 161 1329.66666667 81 1457 c 0
 74.3333333333 1468.33333333 72.5 1477.5 75.5 1484.5 c 0
 78.5 1491.5 82.6666666667 1496.66666667 88 1500 c 2
 130 1526 l 1
 181.333333333 1447.33333333 224.5 1371.16666667 259.5 1297.5 c 0
 294.5 1223.83333333 322.833333333 1150.5 344.5 1077.5 c 0
 366.166666667 1004.5 381.833333333 931.166666667 391.5 857.5 c 0
 401.166666667 783.833333333 406 708 406 630 c 256
 406 552 401.166666667 476.333333333 391.5 403 c 0
 381.833333333 329.666666667 366.166666667 256.5 344.5 183.5 c 0
 322.833333333 110.5 294.5 37.1666666667 259.5 -36.5 c 0
 224.5 -110.166666667 181.333333333 -186.333333333 130 -265 c 1
 88 -239 l 2
 82.6666666667 -235.666666667 78.5 -230.5 75.5 -223.5 c 0
 72.5 -216.5 74.3333333333 -207.333333333 81 -196 c 0
 161 -68.6666666667 221.166666667 63.5 261.5 200.5 c 0
 301.833333333 337.5 322 480.666666667 322 630 c 0
EndSplineSet
EndChar

StartChar: bracketleft
Encoding: 91 91 9
Width: 594
VWidth: 2000
Flags: W
HStem: -264 65<283 511.233> 1452 65<283 511.233>
VStem: 202 81<-199 1452>
LayerCount: 2
Fore
SplineSet
283 1452 m 1
 283 -199 l 1
 489 -199 l 2
 498.333333333 -199 505.833333333 -201.666666667 511.5 -207 c 0
 517.166666667 -212.333333333 520 -219.333333333 520 -228 c 2
 520 -264 l 1
 202 -264 l 1
 202 1517 l 1
 520 1517 l 1
 520 1481 l 2
 520 1472.33333333 517.166666667 1465.33333333 511.5 1460 c 0
 505.833333333 1454.66666667 498.333333333 1452 489 1452 c 2
 283 1452 l 1
EndSplineSet
EndChar

StartChar: bracketright
Encoding: 93 93 10
Width: 594
VWidth: 2000
Flags: W
HStem: -264 65<82.2515 310> 1452 65<82.2515 310>
VStem: 310 81<-199 1452>
LayerCount: 2
Fore
SplineSet
391 -264 m 1
 74 -264 l 1
 74 -228 l 2
 74 -219.333333333 76.6666666667 -212.333333333 82 -207 c 0
 87.3333333333 -201.666666667 94.6666666667 -199 104 -199 c 2
 310 -199 l 1
 310 1452 l 1
 104 1452 l 2
 94.6666666667 1452 87.3333333333 1454.66666667 82 1460 c 0
 76.6666666667 1465.33333333 74 1472.33333333 74 1481 c 2
 74 1517 l 1
 391 1517 l 1
 391 -264 l 1
EndSplineSet
EndChar

StartChar: braceleft
Encoding: 123 123 11
Width: 590
VWidth: 2000
Flags: W
HStem: -264 65<346.115 504.75> 596 61<82 172.764> 1452 65<346.115 504.75>
VStem: 177 84<-124.672 292.467 960.5 1377.67> 237 82<181.422 551.563 701.437 1072.38>
CounterMasks: 1 e0
LayerCount: 2
Fore
SplineSet
455 1452 m 2xf0
 426.333333333 1452 400.166666667 1447 376.5 1437 c 0
 352.833333333 1427 332.5 1412.66666667 315.5 1394 c 0
 298.5 1375.33333333 285.166666667 1352.66666667 275.5 1326 c 0
 265.833333333 1299.33333333 261 1269.66666667 261 1237 c 0xf0
 261 1199 264 1162 270 1126 c 0
 276 1090 282.666666667 1054.5 290 1019.5 c 0
 297.333333333 984.5 304 949.5 310 914.5 c 0
 316 879.5 319 844.333333333 319 809 c 0
 319 784.333333333 314.833333333 761.666666667 306.5 741 c 0
 298.166666667 720.333333333 287.166666667 702.333333333 273.5 687 c 0
 259.833333333 671.666666667 244.166666667 658.833333333 226.5 648.5 c 0
 208.833333333 638.166666667 190.333333333 631 171 627 c 1
 190.333333333 622.333333333 208.833333333 614.833333333 226.5 604.5 c 0
 244.166666667 594.166666667 259.833333333 581.333333333 273.5 566 c 0
 287.166666667 550.666666667 298.166666667 532.666666667 306.5 512 c 0
 314.833333333 491.333333333 319 468.666666667 319 444 c 0xe8
 319 408.666666667 316 373.5 310 338.5 c 0
 304 303.5 297.333333333 268.333333333 290 233 c 0
 282.666666667 197.666666667 276 162 270 126 c 0
 264 90 261 53.3333333333 261 16 c 0
 261 -16.6666666667 265.833333333 -46.3333333333 275.5 -73 c 0
 285.166666667 -99.6666666667 298.5 -122.333333333 315.5 -141 c 0
 332.5 -159.666666667 352.833333333 -174 376.5 -184 c 0
 400.166666667 -194 426.333333333 -199 455 -199 c 2
 488 -199 l 2
 494 -199 499.666666667 -201 505 -205 c 0
 510.333333333 -209 513 -214.666666667 513 -222 c 2
 513 -264 l 1
 458 -264 l 2
 414 -264 374.5 -256.833333333 339.5 -242.5 c 0
 304.5 -228.166666667 275 -208.166666667 251 -182.5 c 0
 227 -156.833333333 208.666666667 -126.666666667 196 -92 c 0
 183.333333333 -57.3333333333 177 -19.6666666667 177 21 c 0xf0
 177 58.3333333333 180.166666667 94.5 186.5 129.5 c 0
 192.833333333 164.5 199.666666667 199.333333333 207 234 c 0
 214.333333333 268.666666667 221.166666667 303.333333333 227.5 338 c 0
 233.833333333 372.666666667 237 408.333333333 237 445 c 0
 237 467 233.333333333 487.166666667 226 505.5 c 0
 218.666666667 523.833333333 208.166666667 539.833333333 194.5 553.5 c 0
 180.833333333 567.166666667 164.5 577.666666667 145.5 585 c 0
 126.5 592.333333333 105.333333333 596 82 596 c 1
 82 657 l 1
 105.333333333 657 126.5 660.666666667 145.5 668 c 0
 164.5 675.333333333 180.833333333 685.833333333 194.5 699.5 c 0
 208.166666667 713.166666667 218.666666667 729.166666667 226 747.5 c 0
 233.333333333 765.833333333 237 786 237 808 c 0xe8
 237 844.666666667 233.833333333 880.333333333 227.5 915 c 0
 221.166666667 949.666666667 214.333333333 984.333333333 207 1019 c 0
 199.666666667 1053.66666667 192.833333333 1088.5 186.5 1123.5 c 0
 180.166666667 1158.5 177 1194.66666667 177 1232 c 0
 177 1272.66666667 183.333333333 1310.33333333 196 1345 c 0
 208.666666667 1379.66666667 227 1409.83333333 251 1435.5 c 0
 275 1461.16666667 304.5 1481.16666667 339.5 1495.5 c 0
 374.5 1509.83333333 414 1517 458 1517 c 2
 513 1517 l 1
 513 1475 l 2
 513 1467.66666667 510.333333333 1462 505 1458 c 0
 499.666666667 1454 494 1452 488 1452 c 2
 455 1452 l 2xf0
EndSplineSet
EndChar

StartChar: braceright
Encoding: 125 125 12
Width: 590
VWidth: 2000
Flags: W
HStem: -264 65<85.2502 243.885> 596 61<417.236 508> 1452 65<85.2502 243.885>
VStem: 271 82<181.422 551.563 701.437 1072.38> 329 84<-124.975 292.483 960.5 1377.67>
CounterMasks: 1 e0
LayerCount: 2
Fore
SplineSet
508 596 m 1xf0
 484.666666667 596 463.5 592.333333333 444.5 585 c 0
 425.5 577.666666667 409.166666667 567.166666667 395.5 553.5 c 0
 381.833333333 539.833333333 371.333333333 523.833333333 364 505.5 c 0
 356.666666667 487.166666667 353 467 353 445 c 0xf0
 353 408.333333333 356.166666667 372.666666667 362.5 338 c 0
 368.833333333 303.333333333 375.666666667 268.666666667 383 234 c 0
 390.333333333 199.333333333 397.166666667 164.5 403.5 129.5 c 0
 409.833333333 94.5 413 58.3333333333 413 21 c 0
 413 -19.6666666667 406.666666667 -57.3333333333 394 -92 c 0
 381.333333333 -126.666666667 363 -156.833333333 339 -182.5 c 0
 315 -208.166666667 285.5 -228.166666667 250.5 -242.5 c 0
 215.5 -256.833333333 176 -264 132 -264 c 2
 77 -264 l 1
 77 -222 l 2
 77 -214.666666667 79.6666666667 -209 85 -205 c 0
 90.3333333333 -201 96 -199 102 -199 c 2
 135 -199 l 2
 163.666666667 -199 189.833333333 -194 213.5 -184 c 0
 237.166666667 -174 257.5 -159.666666667 274.5 -141 c 0
 291.5 -122.333333333 304.833333333 -99.6666666667 314.5 -73 c 0
 324.166666667 -46.3333333333 329 -16.6666666667 329 16 c 0xe8
 329 53.3333333333 326 90 320 126 c 0
 314 162 307.333333333 197.666666667 300 233 c 0
 292.666666667 268.333333333 286 303.5 280 338.5 c 0
 274 373.5 271 408.666666667 271 444 c 0
 271 468.666666667 275.166666667 491.333333333 283.5 512 c 0
 291.833333333 532.666666667 302.833333333 550.666666667 316.5 566 c 0
 330.166666667 581.333333333 345.833333333 594.166666667 363.5 604.5 c 0
 381.166666667 614.833333333 399.666666667 622.333333333 419 627 c 1
 399.666666667 631 381.166666667 638.166666667 363.5 648.5 c 0
 345.833333333 658.833333333 330.166666667 671.666666667 316.5 687 c 0
 302.833333333 702.333333333 291.833333333 720.333333333 283.5 741 c 0
 275.166666667 761.666666667 271 784.333333333 271 809 c 0xf0
 271 844.333333333 274 879.5 280 914.5 c 0
 286 949.5 292.666666667 984.5 300 1019.5 c 0
 307.333333333 1054.5 314 1090 320 1126 c 0
 326 1162 329 1199 329 1237 c 0
 329 1269.66666667 324.166666667 1299.33333333 314.5 1326 c 0
 304.833333333 1352.66666667 291.5 1375.33333333 274.5 1394 c 0
 257.5 1412.66666667 237.166666667 1427 213.5 1437 c 0
 189.833333333 1447 163.666666667 1452 135 1452 c 2
 102 1452 l 2
 96 1452 90.3333333333 1454 85 1458 c 0
 79.6666666667 1462 77 1467.66666667 77 1475 c 2
 77 1517 l 1
 132 1517 l 2
 176 1517 215.5 1509.83333333 250.5 1495.5 c 0
 285.5 1481.16666667 315 1461.16666667 339 1435.5 c 0
 363 1409.83333333 381.333333333 1379.66666667 394 1345 c 0
 406.666666667 1310.33333333 413 1272.66666667 413 1232 c 0xe8
 413 1194.66666667 409.833333333 1158.5 403.5 1123.5 c 0
 397.166666667 1088.5 390.333333333 1053.66666667 383 1019 c 0
 375.666666667 984.333333333 368.833333333 949.666666667 362.5 915 c 0
 356.166666667 880.333333333 353 844.666666667 353 808 c 0
 353 786 356.666666667 765.833333333 364 747.5 c 0
 371.333333333 729.166666667 381.833333333 713.166666667 395.5 699.5 c 0
 409.166666667 685.833333333 425.5 675.333333333 444.5 668 c 0
 463.5 660.666666667 484.666666667 657 508 657 c 1
 508 596 l 1xf0
EndSplineSet
EndChar

StartChar: quotedbl
Encoding: 34 34 13
Width: 681
VWidth: 2000
Flags: W
HStem: 934 481<173.251 218.779 463.251 508.779>
VStem: 154 83<943.799 1415> 444 83<943.799 1415>
LayerCount: 2
Fore
SplineSet
527 1415 m 1
 527 1123 l 1
 518 970 l 2
 516.666992188 958.666992188 513.666992188 949.833007812 509 943.5 c 0
 504.333007812 937.166992188 496.333007812 934 485 934 c 0
 475.666992188 934 468.333007812 937.166992188 463 943.5 c 0
 457.666992188 949.833007812 454.333007812 958.666992188 453 970 c 2
 444 1123 l 1
 444 1415 l 1
 527 1415 l 1
237 1415 m 1
 237 1123 l 1
 228 970 l 2
 226.666992188 958.666992188 223.666992188 949.833007812 219 943.5 c 0
 214.333007812 937.166992188 206.333007812 934 195 934 c 0
 185.666992188 934 178.333007812 937.166992188 173 943.5 c 0
 167.666992188 949.833007812 164.333007812 958.666992188 163 970 c 2
 154 1123 l 1
 154 1415 l 1
 237 1415 l 1
EndSplineSet
EndChar

StartChar: ampersand
Encoding: 38 38 14
Width: 1397
VWidth: 2000
Flags: W
HStem: -16 78<368.067 730.724> 0 21G<1270 1365> 1356 75<511.803 794.235>
VStem: 107 97<210.168 533.58> 303 90<945.5 1250.02> 905 86<1148 1255.49> 1117 81<480.613 668.264>
LayerCount: 2
Fore
SplineSet
491 738 m 1xbe
 447 720 407.166666667 698 371.5 672 c 0
 335.833333333 646 305.666666667 617 281 585 c 0
 256.333333333 553 237.333333333 518.666666667 224 482 c 0
 210.666666667 445.333333333 204 407.333333333 204 368 c 0
 204 316.666666667 213.833333333 272 233.5 234 c 0
 253.166666667 196 278.666666667 164.166666667 310 138.5 c 0
 341.333333333 112.833333333 376.166666667 93.6666666667 414.5 81 c 0
 452.833333333 68.3333333333 490.666666667 62 528 62 c 0
 575.333333333 62 619.833333333 67.3333333333 661.5 78 c 0
 703.166666667 88.6666666667 742 103.5 778 122.5 c 0
 814 141.5 847.333333333 164.166666667 878 190.5 c 0
 908.666666667 216.833333333 936.333333333 245.333333333 961 276 c 1
 502 727 l 1
 491 738 l 1xbe
1365 0 m 1x7e
 1276 0 l 2x7e
 1264 0 1254.16666667 1.33333333333 1246.5 4 c 0
 1238.83333333 6.66666666667 1230 12.6666666667 1220 22 c 2
 1015 223 l 1
 985.666666667 188.333333333 953 156.5 917 127.5 c 0
 881 98.5 842 73.3333333333 800 52 c 0
 758 30.6666666667 713 14 665 2 c 0
 617 -10 566.666666667 -16 514 -16 c 0xbe
 464 -16 414.666666667 -7.66666666667 366 9 c 0
 317.333333333 25.6666666667 273.833333333 50.1666666667 235.5 82.5 c 0
 197.166666667 114.833333333 166.166666667 154.5 142.5 201.5 c 0
 118.833333333 248.5 107 302 107 362 c 0
 107 410 115.666666667 455.833333333 133 499.5 c 0
 150.333333333 543.166666667 174 583.166666667 204 619.5 c 0
 234 655.833333333 269.666666667 688.333333333 311 717 c 0
 352.333333333 745.666666667 397 769 445 787 c 1
 397 841 361.333333333 893 338 943 c 0
 314.666666667 993 303 1046.66666667 303 1104 c 0
 303 1150.66666667 311.5 1193.83333333 328.5 1233.5 c 0
 345.5 1273.16666667 369.666666667 1307.66666667 401 1337 c 0
 432.333333333 1366.33333333 469.833333333 1389.33333333 513.5 1406 c 0
 557.166666667 1422.66666667 606 1431 660 1431 c 0
 704.666666667 1431 747 1423.33333333 787 1408 c 0
 827 1392.66666667 861.833333333 1372 891.5 1346 c 0
 921.166666667 1320 944.833333333 1289.83333333 962.5 1255.5 c 0
 980.166666667 1221.16666667 989.666666667 1185.33333333 991 1148 c 1
 937 1137 l 2
 930.333333333 1135.66666667 924.166666667 1136.83333333 918.5 1140.5 c 0
 912.833333333 1144.16666667 908.333333333 1150.66666667 905 1160 c 0
 901.666666667 1178 894.5 1198.33333333 883.5 1221 c 0
 872.5 1243.66666667 857 1265 837 1285 c 0
 817 1305 792.333333333 1321.83333333 763 1335.5 c 0
 733.666666667 1349.16666667 699.333333333 1356 660 1356 c 0
 620 1356 583.666666667 1349.83333333 551 1337.5 c 0
 518.333333333 1325.16666667 490.333333333 1307.83333333 467 1285.5 c 0
 443.666666667 1263.16666667 425.5 1236.66666667 412.5 1206 c 0
 399.5 1175.33333333 393 1141.66666667 393 1105 c 0
 393 1050.33333333 407 998 435 948 c 0
 463 898 506.333333333 844.333333333 565 787 c 2
 1012 348 l 1
 1042 396 1065.66666667 445.833333333 1083 497.5 c 0
 1100.33333333 549.166666667 1111.66666667 599.333333333 1117 648 c 0
 1118.33333333 656.666666667 1121 663.5 1125 668.5 c 0
 1129 673.5 1135 676 1143 676 c 2
 1198 676 l 1
 1196.66666667 613.333333333 1185 548.833333333 1163 482.5 c 0
 1141 416.166666667 1109.33333333 352.666666667 1068 292 c 1
 1365 0 l 1x7e
EndSplineSet
EndChar

StartChar: dollar
Encoding: 36 36 15
Width: 1160
VWidth: 2000
Flags: W
VStem: 200 90<931.469 1219.01> 512 66<-247.718 -15> 561 63<431.758 682> 598 63<1429 1618.72> 927 90<227.49 538.733>
LayerCount: 2
Fore
SplineSet
593 65 m 1xa8
 646.333333333 68.3333333333 693.666666667 79.1666666667 735 97.5 c 0
 776.333333333 115.833333333 811.333333333 139.833333333 840 169.5 c 0
 868.666666667 199.166666667 890.333333333 233.5 905 272.5 c 0
 919.666666667 311.5 927 353.333333333 927 398 c 0
 927 442 918.666666667 479.333333333 902 510 c 0
 885.333333333 540.666666667 863 566.666666667 835 588 c 0
 807 609.333333333 774.833333333 627.166666667 738.5 641.5 c 0
 702.166666667 655.833333333 664 669.333333333 624 682 c 1
 593 65 l 1xa8
593 1347 m 1
 542.333333333 1344.33333333 498.166666667 1335.16666667 460.5 1319.5 c 0
 422.833333333 1303.83333333 391.333333333 1283.5 366 1258.5 c 0
 340.666666667 1233.5 321.666666667 1205 309 1173 c 0
 296.333333333 1141 290 1107.33333333 290 1072 c 0
 290 1030.66666667 297.333333333 995.333333333 312 966 c 0
 326.666666667 936.666666667 346.666666667 911.5 372 890.5 c 0
 397.333333333 869.5 426.5 851.5 459.5 836.5 c 0
 492.5 821.5 527.666666667 807.666666667 565 795 c 1
 593 1347 l 1
628 775 m 1
 675.333333333 759.666666667 722.333333333 743.5 769 726.5 c 0
 815.666666667 709.5 857.333333333 687.666666667 894 661 c 0
 930.666666667 634.333333333 960.333333333 601.333333333 983 562 c 0
 1005.66666667 522.666666667 1017 473 1017 413 c 0
 1017 355.666666667 1007.5 301.666666667 988.5 251 c 0
 969.5 200.333333333 941.666666667 155.833333333 905 117.5 c 0
 868.333333333 79.1666666667 823.5 48.3333333333 770.5 25 c 0
 717.5 1.66666666667 657 -11.6666666667 589 -15 c 1
 578 -226 l 2
 577.333333333 -234.666666667 574.5 -242 569.5 -248 c 0
 564.5 -254 557.333333333 -257 548 -257 c 2
 512 -257 l 1xd8
 524 -15 l 1
 438.666666667 -11 364.5 7.33333333333 301.5 40 c 0
 238.5 72.6666666667 183 115.666666667 135 169 c 1
 162 208 l 2
 170 218 179.333333333 223 190 223 c 0
 196 223 203.333333333 219.333333333 212 212 c 0
 220.666666667 204.666666667 231.333333333 195.5 244 184.5 c 0
 256.666666667 173.5 271.666666667 161.5 289 148.5 c 0
 306.333333333 135.5 326.5 123.166666667 349.5 111.5 c 0
 372.5 99.8333333333 398.666666667 89.6666666667 428 81 c 0
 457.333333333 72.3333333333 490.666666667 67 528 65 c 1
 561 702 l 1xa8
 515.666666667 716 471.333333333 731.5 428 748.5 c 0
 384.666666667 765.5 346.166666667 787.5 312.5 814.5 c 0
 278.833333333 841.5 251.666666667 874.833333333 231 914.5 c 0
 210.333333333 954.166666667 200 1004 200 1064 c 0
 200 1110.66666667 208.833333333 1155.5 226.5 1198.5 c 0
 244.166666667 1241.5 269.833333333 1279.83333333 303.5 1313.5 c 0
 337.166666667 1347.16666667 378.666666667 1374.33333333 428 1395 c 0
 477.333333333 1415.66666667 534 1427 598 1429 c 1
 606 1596 l 2
 606 1605.33333333 608.666666667 1613 614 1619 c 0
 619.333333333 1625 626.333333333 1628 635 1628 c 2
 671 1628 l 1
 661 1427 l 1x98
 728.333333333 1422.33333333 787.333333333 1407.5 838 1382.5 c 0
 888.666666667 1357.5 935 1324 977 1282 c 1
 955 1248 l 2
 948.333333333 1236.66666667 939.333333333 1231 928 1231 c 0
 920 1231 909.5 1236.5 896.5 1247.5 c 0
 883.5 1258.5 866.5 1270.83333333 845.5 1284.5 c 0
 824.5 1298.16666667 798.666666667 1311.16666667 768 1323.5 c 0
 737.333333333 1335.83333333 700.333333333 1343.66666667 657 1347 c 1
 628 775 l 1
EndSplineSet
EndChar

StartChar: numbersign
Encoding: 35 35 16
Width: 1160
VWidth: 2000
Flags: W
HStem: 0 21G<200 247.667 612.333 662.244> 443 70<87.7367 294 385 672 763 1011.75> 902 71<138.625 387 478 765 856 1060.17>
LayerCount: 2
Fore
SplineSet
765 902 m 1
 467 902 l 1
 385 513 l 1
 683 513 l 1
 765 902 l 1
1079 973 m 1
 1073 935 l 2
 1071.66666667 923.666666667 1067.5 915.333333333 1060.5 910 c 0
 1053.5 904.666666667 1043 902 1029 902 c 2
 845 902 l 1
 763 513 l 1
 988 513 l 2
 998.666666667 513 1006.66666667 510 1012 504 c 0
 1017.33333333 498 1019 487.666666667 1017 473 c 2
 1013 443 l 1
 752 443 l 1
 658 0 l 1
 618 0 l 2
 606.666666667 0 597.833333333 4 591.5 12 c 0
 585.166666667 20 583.666666667 30.6666666667 587 44 c 2
 672 443 l 1
 374 443 l 1
 289 40 l 2
 286.333333333 25.3333333333 280.666666667 15 272 9 c 0
 263.333333333 3 253.333333333 0 242 0 c 2
 200 0 l 1
 294 443 l 1
 112 443 l 2
 100.666666667 443 92.5 446 87.5 452 c 0
 82.5 458 80.6666666667 468.666666667 82 484 c 2
 86 513 l 1
 305 513 l 1
 387 902 l 1
 133 902 l 1
 139 940 l 2
 141.666666667 962 156.666666667 973 184 973 c 2
 398 973 l 1
 484 1377 l 2
 486 1389.66666667 491.166666667 1399.16666667 499.5 1405.5 c 0
 507.833333333 1411.83333333 518 1415 530 1415 c 2
 571 1415 l 1
 478 973 l 1
 776 973 l 1
 869 1415 l 1
 911 1415 l 2
 922.333333333 1415 931 1411.33333333 937 1404 c 0
 943 1396.66666667 944.666666667 1386.33333333 942 1373 c 2
 856 973 l 1
 1079 973 l 1
EndSplineSet
EndChar

StartChar: less
Encoding: 60 60 17
Width: 1160
VWidth: 2000
Flags: W
LayerCount: 2
Fore
SplineSet
344 697 m 2
 333.333333333 691.666666667 322.166666667 687 310.5 683 c 0
 298.833333333 679 286.333333333 675.333333333 273 672 c 1
 298.333333333 666 322 657.333333333 344 646 c 2
 897 365 l 2
 907 360.333333333 914 355.166666667 918 349.5 c 0
 922 343.833333333 924 337.333333333 924 330 c 2
 924 265 l 1
 174 651 l 1
 174 692 l 1
 924 1077 l 1
 924 1012 l 2
 924 1004.66666667 922 998.333333333 918 993 c 0
 914 987.666666667 907 982.333333333 897 977 c 2
 344 697 l 2
EndSplineSet
EndChar

StartChar: greater
Encoding: 62 62 18
Width: 1160
VWidth: 2000
Flags: W
LayerCount: 2
Fore
SplineSet
986 692 m 1
 986 651 l 1
 236 265 l 1
 236 330 l 2
 236 337.333333333 238 343.833333333 242 349.5 c 0
 246 355.166666667 252.666666667 360.333333333 262 365 c 2
 816 646 l 2
 826.666666667 651.333333333 837.833333333 656 849.5 660 c 0
 861.166666667 664 873.666666667 667.666666667 887 671 c 1
 861.666666667 677 838 685.666666667 816 697 c 2
 262 977 l 2
 244.666666667 986.333333333 236 998 236 1012 c 2
 236 1077 l 1
 986 692 l 1
EndSplineSet
EndChar

StartChar: percent
Encoding: 37 37 19
Width: 1559
VWidth: 2000
Flags: W
HStem: -17 65<1045.42 1278.18> 0 21G<217 292.333> 628 64<1047.4 1276.35> 722 64<283.66 511.229> 1366 65<282.24 511.963>
VStem: 100 77<893.679 1256.71> 619 76<895.345 1256> 865 76<156.345 517.432> 1383 76<156.345 517.432>
LayerCount: 2
Fore
SplineSet
695 1075 m 0x3f80
 695 1017 687 965.833333333 671 921.5 c 0
 655 877.166666667 633.333333333 840.333333333 606 811 c 0
 578.666666667 781.666666667 547 759.5 511 744.5 c 0
 475 729.5 437 722 397 722 c 0
 355.666666667 722 316.833333333 729.5 280.5 744.5 c 0
 244.166666667 759.5 212.666666667 781.666666667 186 811 c 0
 159.333333333 840.333333333 138.333333333 877.166666667 123 921.5 c 0
 107.666666667 965.833333333 100 1017 100 1075 c 0
 100 1133.66666667 107.666666667 1185.33333333 123 1230 c 0
 138.333333333 1274.66666667 159.333333333 1311.83333333 186 1341.5 c 0
 212.666666667 1371.16666667 244.166666667 1393.5 280.5 1408.5 c 0
 316.833333333 1423.5 355.666666667 1431 397 1431 c 256
 438.333333333 1431 477 1423.5 513 1408.5 c 0
 549 1393.5 580.5 1371.16666667 607.5 1341.5 c 0
 634.5 1311.83333333 655.833333333 1274.66666667 671.5 1230 c 0
 687.166666667 1185.33333333 695 1133.66666667 695 1075 c 0x3f80
619 1075 m 256
 619 1126.33333333 613.166666667 1170.33333333 601.5 1207 c 0
 589.833333333 1243.66666667 573.833333333 1273.83333333 553.5 1297.5 c 0
 533.166666667 1321.16666667 509.5 1338.5 482.5 1349.5 c 0
 455.5 1360.5 427 1366 397 1366 c 256
 367 1366 338.666666667 1360.5 312 1349.5 c 0
 285.333333333 1338.5 262 1321.16666667 242 1297.5 c 0
 222 1273.83333333 206.166666667 1243.66666667 194.5 1207 c 0
 182.833333333 1170.33333333 177 1126.33333333 177 1075 c 256
 177 1023.66666667 182.833333333 979.833333333 194.5 943.5 c 0
 206.166666667 907.166666667 222 877.333333333 242 854 c 0
 262 830.666666667 285.333333333 813.5 312 802.5 c 0
 338.666666667 791.5 367 786 397 786 c 256
 427 786 455.5 791.5 482.5 802.5 c 0
 509.5 813.5 533.166666667 830.666666667 553.5 854 c 0
 573.833333333 877.333333333 589.833333333 907.166666667 601.5 943.5 c 0
 613.166666667 979.833333333 619 1023.66666667 619 1075 c 256
1232 1397 m 2
 1236 1402.33333333 1240.83333333 1406.66666667 1246.5 1410 c 0
 1252.16666667 1413.33333333 1259.66666667 1415 1269 1415 c 2
 1336 1415 l 1
 320 18 l 2
 311.333333333 6 299.666666667 0 285 0 c 2
 217 0 l 1x7f80
 1232 1397 l 2
1459 336 m 0
 1459 278 1451 226.833333333 1435 182.5 c 0
 1419 138.166666667 1397.5 101.333333333 1370.5 72 c 0
 1343.5 42.6666666667 1312 20.5 1276 5.5 c 0
 1240 -9.5 1202 -17 1162 -17 c 0xbf80
 1120.66666667 -17 1081.83333333 -9.5 1045.5 5.5 c 0
 1009.16666667 20.5 977.666666667 42.6666666667 951 72 c 0
 924.333333333 101.333333333 903.333333333 138.166666667 888 182.5 c 0
 872.666666667 226.833333333 865 278 865 336 c 0
 865 394.666666667 872.666666667 446.333333333 888 491 c 0
 903.333333333 535.666666667 924.333333333 572.833333333 951 602.5 c 0
 977.666666667 632.166666667 1009.16666667 654.5 1045.5 669.5 c 0
 1081.83333333 684.5 1120.66666667 692 1162 692 c 256
 1203.33333333 692 1242 684.5 1278 669.5 c 0
 1314 654.5 1345.5 632.166666667 1372.5 602.5 c 0
 1399.5 572.833333333 1420.66666667 535.666666667 1436 491 c 0
 1451.33333333 446.333333333 1459 394.666666667 1459 336 c 0
1383 336 m 256
 1383 387.333333333 1377.16666667 431.5 1365.5 468.5 c 0
 1353.83333333 505.5 1338 535.833333333 1318 559.5 c 0
 1298 583.166666667 1274.5 600.5 1247.5 611.5 c 0
 1220.5 622.5 1192 628 1162 628 c 256
 1132 628 1103.5 622.5 1076.5 611.5 c 0
 1049.5 600.5 1026 583.166666667 1006 559.5 c 0
 986 535.833333333 970.166666667 505.5 958.5 468.5 c 0
 946.833333333 431.5 941 387.333333333 941 336 c 256
 941 284.666666667 946.833333333 240.833333333 958.5 204.5 c 0
 970.166666667 168.166666667 986 138.333333333 1006 115 c 0
 1026 91.6666666667 1049.5 74.6666666667 1076.5 64 c 0
 1103.5 53.3333333333 1132 48 1162 48 c 256
 1192 48 1220.5 53.3333333333 1247.5 64 c 0
 1274.5 74.6666666667 1298 91.6666666667 1318 115 c 0
 1338 138.333333333 1353.83333333 168.166666667 1365.5 204.5 c 0
 1377.16666667 240.833333333 1383 284.666666667 1383 336 c 256
EndSplineSet
EndChar

StartChar: py
Encoding: 60800 60800 20
Width: 1089
VWidth: 2000
GlyphClass: 2
Flags: W
HStem: 0 86<260 488.063>
VStem: 164 96<86 1518> 856 91<596.207 1013>
AnchorPoint: "Top" 659 1337.1 basechar 0
AnchorPoint: "Bottom" 457 0 basechar 0
LayerCount: 2
Fore
SplineSet
806 283 m 24
 666.600525848 94.3333333333 478.933859181 -3.33673089159e-11 243 0 c 2
 164 0 l 1
 164 156 l 1
 164 943 l 1
 164 1013 l 1
 164 1518 l 5
 260 1518 l 1
 260 1013 l 1
 260 86 l 1
 268 86 l 2
 460.744186046 86 611.417671812 152.011020833 712 290 c 0
 833 456 856 699.552147239 856 1013 c 1
 947 1013 l 1
 950.337278107 700.333333333 903.337278107 457 806 283 c 24
EndSplineSet
EndChar

StartChar: ty
Encoding: 60801 60801 21
Width: 1116
VWidth: 2000
GlyphClass: 2
Flags: W
HStem: 0 21G<164 260 851 947> 935 76<442.721 740.475>
VStem: 164 96<0 799.24 827 1518.2> 851 96<0 825.25>
AnchorPoint: "Anchor-1" 556 -70 basechar 0
AnchorPoint: "Top" 697 1332.1 basechar 0
AnchorPoint: "Bottom" 561 0 basechar 0
LayerCount: 2
Fore
SplineSet
260 827 m 1
 306 883 358.5 927.666666667 417.5 961 c 0
 476.5 994.333333333 542.666666667 1011 616 1011 c 0
 670.666666667 1011 718.833333333 1002.33333333 760.5 985 c 0
 802.166666667 967.666666667 836.666666667 942.666666667 864 910 c 0
 891.333333333 877.333333333 912 838 926 792 c 0
 940 746 947 694 947 636 c 2
 947 0 l 1
 851 0 l 1
 851 636 l 2
 851 729.333333333 829.666666667 802.5 787 855.5 c 0
 744.333333333 908.5 679.333333333 935 592 935 c 0
 527.333333333 935 466.833333333 918.5 410.5 885.5 c 0
 354.166666667 852.5 304 806.666666667 260 748 c 1
 260 0 l 1
 164 0 l 1
 164 1518.20019531 l 1
 260 1518.20019531 l 1
 260 827 l 1
EndSplineSet
EndChar

StartChar: ky
Encoding: 60802 60802 22
Width: 1116
VWidth: 2000
GlyphClass: 2
Flags: W
VStem: 164 96<171.937 228> 851 96<771 827.055>
AnchorPoint: "Top" 681 1329.1 basechar 0
AnchorPoint: "Bottom" 543 0 basechar 0
LayerCount: 2
Fore
SplineSet
164 1518 m 1
 164 0 l 1
 212 0 l 2
 220.666666667 -1.06132550665e-15 227.833333333 1.5 233.5 4.5 c 0
 239.166666667 7.5 249.946625951 19.9293012593 250 20 c 2
 854 828 l 1
 852 808 851 777.578545965 851 771 c 2
 851 0 l 1
 947 0 l 1
 947 995 l 1
 896 995 l 2
 886.666666667 995 879.5 993.833333333 874.5 991.5 c 0
 869.5 989.166666667 858.057383331 976.075976285 858 976 c 2
 257 171 l 1
 259 191 260 210 260 228 c 2
 260 1518 l 1
 164 1518 l 1
EndSplineSet
EndChar

StartChar: fy
Encoding: 60803 60803 23
Width: 904
VWidth: 2000
GlyphClass: 2
Flags: W
VStem: 419 96<387.699 656>
AnchorPoint: "Top" 466 1333.1 basechar 0
AnchorPoint: "Bottom" 462 0 basechar 0
LayerCount: 2
Fore
SplineSet
208 75 m 5
 298 129 l 5
 442.666666667 253.550546448 515 429.217213114 515 656 c 6
 515 995 l 5
 420 995 l 5
 419 563 l 6
 418.567786552 368.503948365 301.516586581 205.96800882 71 71.5 c 4
 67 69.166666667 65 56.666666667 65 34 c 6
 65 0 l 5
 792 0 l 5
 792 75 l 5
 208 75 l 5
EndSplineSet
EndChar

StartChar: ly
Encoding: 60804 60804 24
Width: 943
VWidth: 2000
GlyphClass: 2
Flags: W
HStem: -13 75<388.907 716.75> 936 75<394.436 726.8>
VStem: 104 98<260.449 734.93>
AnchorPoint: "Top" 505 1325.1 basechar 0
AnchorPoint: "Bottom" 510 -6 basechar 0
LayerCount: 2
Fore
SplineSet
833 862 m 2
 829.666666667 858.666666667 826.5 855.833333333 823.5 853.5 c 0
 820.5 851.166666667 816.333333333 850 811 850 c 0
 804.333333333 850 795.333333333 854.5 784 863.5 c 0
 772.666666667 872.5 757.333333333 882.333333333 738 893 c 0
 718.666666667 903.666666667 694.5 913.5 665.5 922.5 c 0
 636.5 931.5 601.333333333 936 560 936 c 0
 502.666666667 936 451.833333333 925.833333333 407.5 905.5 c 0
 363.166666667 885.166666667 325.666666667 856 295 818 c 0
 264.333333333 780 241.166666667 734 225.5 680 c 0
 209.833333333 626 202 565.333333333 202 498 c 0
 202 428 210.166666667 366 226.5 312 c 0
 242.833333333 258 266 212.5 296 175.5 c 0
 326 138.5 362.333333333 110.333333333 405 91 c 0
 447.666666667 71.6666666667 495 62 547 62 c 0
 595 62 635.166666667 67.6666666667 667.5 79 c 0
 699.833333333 90.3333333333 726.5 102.666666667 747.5 116 c 0
 768.5 129.333333333 785 141.666666667 797 153 c 0
 809 164.333333333 819 170 827 170 c 256
 835 170 841.666666667 166.666666667 847 160 c 2
 872 128 l 1
 856.666666667 108 837.333333333 89.3333333333 814 72 c 0
 790.666666667 54.6666666667 764.333333333 39.6666666667 735 27 c 0
 705.666666667 14.3333333333 673.833333333 4.5 639.5 -2.5 c 0
 605.166666667 -9.5 569.333333333 -13 532 -13 c 0
 468.666666667 -13 410.833333333 -1.5 358.5 21.5 c 0
 306.166666667 44.5 261.166666667 77.8333333333 223.5 121.5 c 0
 185.833333333 165.166666667 156.5 218.666666667 135.5 282 c 0
 114.5 345.333333333 104 417.333333333 104 498 c 0
 104 574 114 643.333333333 134 706 c 0
 154 768.666666667 183.333333333 822.666666667 222 868 c 0
 260.666666667 913.333333333 307.833333333 948.5 363.5 973.5 c 0
 419.166666667 998.5 483 1011 555 1011 c 0
 619.666666667 1011 677 1000.66666667 727 980 c 0
 777 959.333333333 820.666666667 931.333333333 858 896 c 1
 833 862 l 2
EndSplineSet
EndChar

StartChar: sy
Encoding: 60805 60805 25
Width: 1102
VWidth: 2000
GlyphClass: 2
Flags: W
HStem: -12.7998 76<365.486 680.805> 921.2 59<563.422 667.125> 936.2 75<381.55 660.765>
VStem: 93 98<252.4 734.461> 850 95<229.294 419.2>
AnchorPoint: "Top" 507 1338 basechar 0
AnchorPoint: "Bottom" 527 0 basechar 0
LayerCount: 2
Fore
SplineSet
675 980.200195312 m 0xd8
 630.077965214 1001.09410182 580.280510018 1011.20019531 526 1011.20019531 c 0
 456 1011.20019531 394.166666667 997.866861979 340.5 971.200195312 c 0
 286.833333333 944.533528646 241.666666667 908.033528646 205 861.700195312 c 0
 168.333333333 815.366861979 140.5 760.700195312 121.5 697.700195312 c 0
 102.5 634.700195312 93 566.866861979 93 494.200195312 c 0
 93 410.200195312 104 336.533528646 126 273.200195312 c 0
 148 209.866861979 178.5 157.033528646 217.5 114.700195312 c 0
 256.5 72.3668619792 302.5 40.5335286458 355.5 19.2001953125 c 0
 408.5 -2.13313802083 465.666666667 -12.7998046875 527 -12.7998046875 c 0
 533.050797292 -12.7998046875 539.050797292 -12.7045597659 545 -12.5140699227 c 0
 600.009799908 -10.7526896719 650.676466575 -0.847934593461 697 17.2001953125 c 0
 748.333333333 37.2001953125 792.333333333 65.8668619792 829 103.200195312 c 0
 865.666666667 140.533528646 894.166666667 185.866861979 914.5 239.200195312 c 0
 934.833333333 292.533528646 945 363.185319566 945 419.200195312 c 2
 945 1524.20019531 l 1
 850 1524.20019531 l 1
 850 851.200195312 l 1
 850 760.200195312 l 1
 850 419.200195312 l 2
 850 363.866861979 841.666666667 314.200195312 825 270.200195312 c 0
 808.333333333 226.200195312 785.5 188.866861979 756.5 158.200195312 c 0
 727.5 127.533528646 693.333333333 104.033528646 654 87.7001953125 c 0
 614.666666667 71.3668619792 572.333333333 63.2001953125 527 63.2001953125 c 0
 477.666666667 63.2001953125 432.5 71.7001953125 391.5 88.7001953125 c 0
 350.5 105.700195312 315.166666667 132.033528646 285.5 167.700195312 c 0
 255.833333333 203.366861979 232.666666667 248.200195312 216 302.200195312 c 0
 199.333333333 356.200195312 191 420.200195312 191 494.200195312 c 0
 191 559.533528646 198.5 619.366861979 213.5 673.700195312 c 0
 228.5 728.033528646 250.833333333 774.700195312 280.5 813.700195312 c 0
 310.166666667 852.700195312 347 882.866861979 391 904.200195312 c 0
 435 925.533528646 486.333333333 936.200195312 545 936.200195312 c 0xb8
 573.551711214 936.200195312 626 922.459960938 626 922.459960938 c 1
 626 922.459960938 641.416163973 917.615324414 649 921.200195312 c 0
 663.200756225 927.912877068 662 932.343052455 663 934.200195312 c 0
 675 980.200195312 l 0xd8
EndSplineSet
EndChar

StartChar: cy
Encoding: 60806 60806 26
Width: 1178
VWidth: 2000
GlyphClass: 2
Flags: W
HStem: 0 21G<163 259 850 946> 922 79<430.539 740.531>
VStem: 163 96<0 775.415> 163 82<821 995> 850 96<0 813.179 853.344 1506.85>
AnchorPoint: "Top" 449 1337.1 basechar 0
AnchorPoint: "Bottom" 573 0 basechar 0
LayerCount: 2
Fore
SplineSet
258 0 m 1xe8
 163 0 l 1
 163 757 l 1xe8
 163 995 l 1
 216 995 l 2
 232.666992188 995 243.940023071 986.430731713 245 969 c 2xd8
 254 821 l 1
 254.939453125 807.28515625 l 1
 297.159179688 865.924804688 346.012659624 912.330136078 401.5 946.5 c 0
 460.5 982.833007812 525.333007812 1001 596 1001 c 0
 662.666992188 1001 717.833007812 988.166992188 761.5 962.5 c 0
 805.166992188 936.833007812 838.666992188 900 862 852 c 1
 859.333007812 880.666992188 857.5 909.666992188 856.5 939 c 0
 855.5 968.333007812 855 995.000186852 855 1019 c 2
 855 1518.20019531 l 1
 903 1518.20019531 l 2
 916.333007812 1518.20019531 926.833007812 1514.53320312 934.5 1507.20019531 c 0
 942.166992188 1499.8671875 946 1489.53319573 946 1476.20019531 c 2
 946 0 l 1
 850 0 l 1
 850 621 l 2
 850 667.666992188 844.666992188 709.666992188 834 747 c 0
 823.333007812 784.333007812 807.333007812 816 786 842 c 0
 764.666992188 868 737.833007812 887.833007812 705.5 901.5 c 0
 673.166992188 915.166992188 635 922 591 922 c 0
 521 922 457.999927209 903.50011017 402 866.5 c 0
 346.465820312 829.807617188 298.798828125 778.528320312 259 712.661132812 c 1
 259 0 l 1
 258 0 l 1xe8
EndSplineSet
EndChar

StartChar: my
Encoding: 60807 60807 27
Width: 904
VWidth: 2000
GlyphClass: 2
Flags: W
HStem: 0 75<254.298 821> 949.035 61.9648<306.902 585.031>
VStem: 90.8398 81.1807<716.638 832.366> 703.38 80.3604<572.996 851.494>
AnchorPoint: "Top" 446 1338.1 basechar 0
AnchorPoint: "Bottom" 458 0 basechar 0
LayerCount: 2
Fore
SplineSet
787 75 m 2
 799.289763809 75 821 55.7431960237 821 41 c 2
 821 0 l 1
 58 0 l 1
 58 34 l 2
 58 52.5448128817 78 76 78 76 c 2
 454 357 l 2
 454 357 648.044013109 505.597597601 686.16015625 617.790039062 c 0
 697.639973958 648.90010016 703.379882812 682.050165264 703.379882812 717.240234375 c 0
 703.379882812 864.51730771 602.120988551 949.03515625 446.719726562 949.03515625 c 0
 290.309483645 949.03515625 198.158094054 860.581334899 172.020507812 738.66015625 c 0
 168.196425525 720.822372169 153.666413794 709.201079827 131.020507812 712.650390625 c 2
 90.83984375 718.770507812 l 1
 111.917566206 856.417713179 191.699995109 951.696152077 317.16015625 991.4921875 c 0
 358.160108025 1004.49739583 402.440055941 1011 450 1011 c 0
 601.765505268 1011 707.669093527 946.738146227 756.6796875 847.672851562 c 0
 774.720052083 811.207795981 783.740234375 768.495230877 783.740234375 719.53515625 c 0
 783.740234375 629.112619794 750.495468098 563.235588498 709.120117188 505.334960938 c 0
 676.635369651 455.093687615 548.197247096 338.214376986 519 315 c 2
 190 59 l 1
 211.333217556 64.3334153634 232.700392374 69.2600986828 254.297851562 70.5888671875 c 2
 326 75 l 1
 787 75 l 2
EndSplineSet
EndChar

StartChar: xy
Encoding: 60808 60808 28
Width: 1134
VWidth: 2000
GlyphClass: 2
Flags: W
HStem: -13 75<389.463 726.537> 936 75<390.468 725.532>
VStem: 104 98<258.24 738.028> 913 98<255.729 739.147>
AnchorPoint: "Top" 561 1337.1 basechar 0
AnchorPoint: "Bottom" 569 0 basechar 0
LayerCount: 2
Fore
SplineSet
558 1011 m 256
 629.333333333 1011 693.166666667 998.833333333 749.5 974.5 c 0
 805.833333333 950.166666667 853.333333333 915.666666667 892 871 c 0
 930.666666667 826.333333333 960.166666667 772.5 980.5 709.5 c 0
 1000.83333333 646.5 1011 576 1011 498 c 256
 1011 420 1000.83333333 349.666666667 980.5 287 c 0
 960.166666667 224.333333333 930.666666667 170.666666667 892 126 c 0
 853.333333333 81.3333333333 805.833333333 47 749.5 23 c 0
 693.166666667 -1 629.333333333 -13 558 -13 c 256
 486.666666667 -13 422.833333333 -1 366.5 23 c 0
 310.166666667 47 262.5 81.3333333333 223.5 126 c 0
 184.5 170.666666667 154.833333333 224.333333333 134.5 287 c 0
 114.166666667 349.666666667 104 420 104 498 c 256
 104 576 114.166666667 646.5 134.5 709.5 c 0
 154.833333333 772.5 184.5 826.333333333 223.5 871 c 0
 262.5 915.666666667 310.166666667 950.166666667 366.5 974.5 c 0
 422.833333333 998.833333333 486.666666667 1011 558 1011 c 256
558 62 m 256
 617.333333333 62 669.166666667 72.1666666667 713.5 92.5 c 0
 757.833333333 112.833333333 794.833333333 142 824.5 180 c 0
 854.166666667 218 876.333333333 263.833333333 891 317.5 c 0
 905.666666667 371.166666667 913 431.333333333 913 498 c 0
 913 564 905.666666667 624 891 678 c 0
 876.333333333 732 854.166666667 778.166666667 824.5 816.5 c 0
 794.833333333 854.833333333 757.833333333 884.333333333 713.5 905 c 0
 669.166666667 925.666666667 617.333333333 936 558 936 c 256
 498.666666667 936 446.833333333 925.666666667 402.5 905 c 0
 358.166666667 884.333333333 321.166666667 854.833333333 291.5 816.5 c 0
 261.833333333 778.166666667 239.5 732 224.5 678 c 0
 209.5 624 202 564 202 498 c 0
 202 431.333333333 209.5 371.166666667 224.5 317.5 c 0
 239.5 263.833333333 261.833333333 218 291.5 180 c 0
 321.166666667 142 358.166666667 112.833333333 402.5 92.5 c 0
 446.833333333 72.1666666667 498.666666667 62 558 62 c 256
EndSplineSet
EndChar

StartChar: denpabu
Encoding: 60809 60809 29
Width: 484
VWidth: 2000
GlyphClass: 2
Flags: W
HStem: 492 203<159.395 324.456>
VStem: 141 202<510.395 676.456>
AnchorPoint: "Top" 233 1338 basechar 0
AnchorPoint: "Bottom" 230 -2 basechar 0
LayerCount: 2
Fore
SplineSet
141 592 m 4
 141 606 143.666666667 619.333333333 149 632 c 4
 154.333333333 644.666666667 161.5 655.666666667 170.5 665 c 4
 179.5 674.333333333 190 681.666666667 202 687 c 4
 214 692.333333333 226.666666667 695 240 695 c 4
 254 695 267.333333333 692.333333333 280 687 c 4
 292.666666667 681.666666667 303.666666667 674.333333333 313 665 c 4
 322.333333333 655.666666667 329.666666667 644.666666667 335 632 c 4
 340.333333333 619.333333333 343 606 343 592 c 4
 343 578.666666667 340.333333333 565.833333333 335 553.5 c 4
 329.666666667 541.166666667 322.333333333 530.5 313 521.5 c 4
 303.666666667 512.5 292.666666667 505.333333333 280 500 c 4
 267.333333333 494.666666667 254 492 240 492 c 4
 226.666666667 492 214 494.666666667 202 500 c 4
 190 505.333333333 179.5 512.5 170.5 521.5 c 4
 161.5 530.5 154.333333333 541.166666667 149 553.5 c 4
 143.666666667 565.833333333 141 578.666666667 141 592 c 4
EndSplineSet
Substitution2: "Single Substitution lookup 37 subtable" denpabu.cas
EndChar

StartChar: yhy
Encoding: 60810 60810 30
Width: 480
VWidth: 2000
GlyphClass: 2
Flags: W
HStem: 0 21G<175 270> 975 20G<175 270>
VStem: 175 95<0 995>
AnchorPoint: "Top" 223 1337.1 basechar 0
AnchorPoint: "Bottom" 223 0 basechar 0
LayerCount: 2
Fore
SplineSet
270 995 m 5
 270 0 l 5
 175 0 l 1
 175 995 l 1
 270 995 l 5
EndSplineSet
EndChar

StartChar: cnimahobu
Encoding: 60811 60811 31
Width: 940
VWidth: 2000
GlyphClass: 2
Flags: W
HStem: 0 21G<673 767> 694.436 105.012<104.558 506.966> 974 20G<666 767>
VStem: 673 94<0 839>
AnchorPoint: "Top" 223 1337.1 basechar 0
AnchorPoint: "Bottom" 223 0 basechar 0
LayerCount: 2
Fore
SplineSet
673 0 m 1
 673 839 l 1
 647.211747101 802.911360981 589.320065172 771.479686019 502.9375 735.567382812 c 0
 436.979166667 708.146158854 354.561523438 694.435546875 255.684570312 694.435546875 c 0
 223.228190104 694.435546875 192.531619274 696.016507215 163.615234375 699.356445312 c 0
 135.205078125 702.637912327 109.46484375 707.560112847 86.39453125 714.123046875 c 1
 104.21484375 789.603515625 l 1
 111.404947917 801.791015625 126.75 807.884765625 150.25 807.884765625 c 0
 164.083333333 807.884765625 184.380238632 806.49732121 211.134765625 803.666015625 c 0
 237.711588542 800.853515625 267.411783855 799.447265625 300.235351562 799.447265625 c 0
 348.745117187 799.447265625 391.991800167 800.950969948 428.6875 810.641601562 c 0
 465.5625 818.358886719 497.257348034 832.047811512 528.182617188 844.171875 c 0
 557.394205729 858.67988377 589.241980191 870.798065693 606.14453125 897.983398438 c 0
 640.71484375 940.086934952 662 972.092468806 670 994 c 1
 767 994 l 1
 767 0 l 1
 673 0 l 1
EndSplineSet
EndChar

StartChar: patonga
Encoding: 60812 60812 32
Width: 800
VWidth: 2000
GlyphClass: 4
Flags: W
HStem: -419 270
VStem: -152 311
AnchorPoint: "Bottom" 0 0 mark 0
LayerCount: 2
Fore
SplineSet
159 -149 m 1
 -58 -402 l 2
 -63.5550103779 -408.47657892 -68.8330078125 -413.166992188 -74.5 -415.5 c 0
 -80.1669921875 -417.833007812 -87 -419 -95 -419 c 2
 -152 -419 l 1
 5 -181 l 2
 12.7392064455 -169.26795456 20 -160.666992188 28 -156 c 0
 36 -151.333007812 48 -149 64 -149 c 2
 159 -149 l 1
EndSplineSet
EndChar

StartChar: retonga
Encoding: 60813 60813 33
Width: 0
VWidth: 2000
GlyphClass: 4
Flags: W
HStem: -416 270
VStem: -158 308
AnchorPoint: "Bottom" -0 -0 mark 0
LayerCount: 2
Fore
SplineSet
-66 -146 m 2
 -50 -146 -38 -148.333333333 -30 -153 c 0
 -22 -157.666666667 -14.7393051472 -166.267804936 -7 -178 c 2
 150 -416 l 1
 95 -416 l 2
 87 -416 80.1666666667 -414.833333333 74.5 -412.5 c 0
 68.8333333333 -410.166666667 63.5406135635 -405.489700146 58 -399 c 2
 -158 -146 l 1
 -66 -146 l 2
EndSplineSet
EndChar

StartChar: citonga
Encoding: 60814 60814 34
Width: 0
VWidth: 2000
GlyphClass: 4
Flags: W
HStem: -446 246
VStem: -261 520
AnchorPoint: "Bottom" 0 0 mark 0
LayerCount: 2
Fore
SplineSet
259 -446 m 1
 194 -446 l 2
 184 -446 173.970718261 -441.669735268 165 -432 c 2
 11 -266 l 2
 9.07770322983 -263.927913871 7.16666666667 -262 5.5 -260 c 0
 3.83333333333 -258 2 -255.666666667 0 -253 c 1
 -2 -255.666666667 -3.83333333333 -258 -5.5 -260 c 0
 -7.16666666667 -262 -9.07770322983 -263.927913871 -11 -266 c 2
 -165 -432 l 2
 -168.84459354 -436.144172258 -173.5 -439.333333333 -178.5 -442 c 0
 -183.5 -444.666666667 -188.666666667 -446 -194 -446 c 2
 -261 -446 l 1
 -44 -200 l 1
 41 -200 l 1
 259 -446 l 1
EndSplineSet
EndChar

StartChar: votonga
Encoding: 60815 60815 35
Width: 0
VWidth: 2000
GlyphClass: 4
Flags: W
HStem: -426 246
VStem: -262 520
AnchorPoint: "Bottom" 0 0 mark 0
LayerCount: 2
Fore
SplineSet
258 -180 m 1
 40 -426 l 1
 -45 -426 l 1
 -262 -180 l 1
 -195 -180 l 2
 -184.333333333 -180 -175.052054795 -183.405479452 -168 -191 c 2
 -12 -359 l 2
 -9.11506849315 -362.106849315 -9 -362 -6 -365 c 0
 -4 -367 -2.33333333333 -369.333333333 -1 -372 c 1
 1 -369.333333333 2.83333333333 -367 4.5 -365 c 0
 6.16666666667 -363 8.07671232877 -361.071232877 10 -359 c 2
 166 -191 l 2
 173.052054795 -183.405479452 182.333333333 -180 193 -180 c 2
 258 -180 l 1
EndSplineSet
EndChar

StartChar: by
Encoding: 60816 60816 36
Width: 1031
VWidth: 2000
GlyphClass: 2
Flags: W
HStem: 0 21G<92.3314 185> 927 86<552.937 781>
VStem: 94 91<0 417.918> 781 96<-505 927>
AnchorPoint: "Top" 704 1324.2 basechar 0
AnchorPoint: "Bottom" 432 0 basechar 0
LayerCount: 2
Fore
SplineSet
235 730 m 0
 374.399474152 918.666666667 562.066140819 1013 798 1013 c 2
 877 1013 l 1
 877 857 l 1
 877 70 l 1
 877 0 l 1
 877 -505 l 5
 781 -505 l 1
 781 0 l 1
 781 927 l 1
 773 927 l 2
 580.689922481 927 434.636675387 857.297465261 330 723 c 0
 203 560 185 313.447852761 185 0 c 1
 94 0 l 1
 90.6627218935 312.666666667 116.520425889 569.646839047 235 730 c 0
EndSplineSet
EndChar

StartChar: dy
Encoding: 60817 60817 37
Width: 1101
VWidth: 2000
GlyphClass: 2
Flags: W
HStem: -16 76<359.215 657.046> 975 20G<153 249 840 938>
VStem: 153 96<169.75 995> 840 98<-506 171.52 195.76 995>
AnchorPoint: "Anchor-3" 551 1120 basechar 0
AnchorPoint: "Anchor-1" 600 -70 basechar 0
AnchorPoint: "Top" 547 1330.1 basechar 0
AnchorPoint: "Bottom" 448 1 basechar 0
LayerCount: 2
Fore
SplineSet
938 995 m 1
 938 -506 l 1
 843 -506 l 1
 843 171.519958851 l 1
 797.460902657 115.338700149 744.960902657 70.165380532 685.5 36 c 0
 625.166666667 1.33333333333 558 -16 484 -16 c 0
 428.666666667 -16 380.333333333 -7.33333333333 339 10 c 0
 297.666666667 27.3333333333 263.333333333 52.3333333333 236 85 c 0
 208.666666667 117.666666667 188 157 174 203 c 0
 160 249 153 301 153 359 c 2
 153 995 l 1
 249 995 l 1
 249 359 l 2
 249 265.666666667 270.333333333 192.5 313 139.5 c 0
 355.666666667 86.5 420.666666667 60 508 60 c 0
 572.666666667 60 633.166666667 76.5 689.5 109.5 c 0
 745.833333333 142.5 796 188.333333333 840 247 c 1
 840 995 l 1
 936 995 l 1
 938 995 l 1
EndSplineSet
EndChar

StartChar: gy
Encoding: 60818 60818 38
Width: 1116
VWidth: 2000
GlyphClass: 2
Flags: W
VStem: 164 96<167.945 224> 851 96<767 823.063>
AnchorPoint: "Top" 553 1334.1 basechar 0
AnchorPoint: "Bottom" 543 0 basechar 0
LayerCount: 2
Fore
SplineSet
947 -523 m 1
 947 995 l 1
 899 995 l 2
 890.333007812 995 883.166992188 993.5 877.5 990.5 c 0
 871.833007812 987.5 861.053710938 975.0703125 861 975 c 2
 257 167 l 1
 259 187 260 217.421875 260 224 c 2
 260 995 l 1
 164 995 l 1
 164 0 l 1
 215 0 l 2
 224.333007812 0 231.5 1.1669921875 236.5 3.5 c 0
 241.5 5.8330078125 252.942382812 18.923828125 253 19 c 2
 854 824 l 1
 852 804 851 785 851 767 c 2
 851 -523 l 1
 947 -523 l 1
EndSplineSet
EndChar

StartChar: vy
Encoding: 60819 60819 39
Width: 904
VWidth: 2000
GlyphClass: 2
Flags: W
VStem: 362 95<339 607.301>
AnchorPoint: "Top" 454 1337.1 basechar 0
AnchorPoint: "Bottom" 410 0 basechar 0
LayerCount: 2
Fore
SplineSet
669 920 m 1
 579 866 l 1
 434.333333333 741.449453552 362 565.782786886 362 339 c 2
 362 0 l 1
 457 0 l 1
 458 432 l 2
 458.432213448 626.496051635 575.483413419 789.03199118 806 923.5 c 0
 810 925.833333333 812 938.333333333 812 961 c 2
 812 995 l 1
 85 995 l 1
 85 920 l 1
 669 920 l 1
EndSplineSet
EndChar

StartChar: ry
Encoding: 60820 60820 40
Width: 955
VWidth: 2000
GlyphClass: 2
Flags: W
HStem: -13 75<259.25 587.093> 936 75<249.2 581.564>
VStem: 774 98<260.449 734.93>
AnchorPoint: "Top" 475 1334 basechar 0
AnchorPoint: "Bottom" 472 0 basechar 0
LayerCount: 2
Fore
SplineSet
143 862 m 2
 146.333333333 858.666666667 149.5 855.833333333 152.5 853.5 c 0
 155.5 851.166666667 159.666666667 850 165 850 c 0
 171.666666667 850 180.666666667 854.5 192 863.5 c 0
 203.333333333 872.5 218.666666667 882.333333333 238 893 c 0
 257.333333333 903.666666667 281.5 913.5 310.5 922.5 c 0
 339.5 931.5 374.666666667 936 416 936 c 0
 473.333333333 936 524.166666667 925.833333333 568.5 905.5 c 0
 612.833333333 885.166666667 650.333333333 856 681 818 c 0
 711.666666667 780 734.833333333 734 750.5 680 c 0
 766.166666667 626 774 565.333333333 774 498 c 0
 774 428 765.833333333 366 749.5 312 c 0
 733.166666667 258 710 212.5 680 175.5 c 0
 650 138.5 613.666666667 110.333333333 571 91 c 0
 528.333333333 71.6666666667 481 62 429 62 c 0
 381 62 340.833333333 67.6666666667 308.5 79 c 0
 276.166666667 90.3333333333 249.5 102.666666667 228.5 116 c 0
 207.5 129.333333333 191 141.666666667 179 153 c 0
 167 164.333333333 157 170 149 170 c 256
 141 170 134.333333333 166.666666667 129 160 c 2
 104 128 l 1
 119.333333333 108 138.666666667 89.3333333333 162 72 c 0
 185.333333333 54.6666666667 211.666666667 39.6666666667 241 27 c 0
 270.333333333 14.3333333333 302.166666667 4.5 336.5 -2.5 c 0
 370.833333333 -9.5 406.666666667 -13 444 -13 c 0
 507.333333333 -13 565.166666667 -1.5 617.5 21.5 c 0
 669.833333333 44.5 714.833333333 77.8333333333 752.5 121.5 c 0
 790.166666667 165.166666667 819.5 218.666666667 840.5 282 c 0
 861.5 345.333333333 872 417.333333333 872 498 c 0
 872 574 862 643.333333333 842 706 c 0
 822 768.666666667 792.666666667 822.666666667 754 868 c 0
 715.333333333 913.333333333 668.166666667 948.5 612.5 973.5 c 0
 556.833333333 998.5 493 1011 421 1011 c 0
 356.333333333 1011 299 1000.66666667 249 980 c 0
 199 959.333333333 155.333333333 931.333333333 118 896 c 1
 143 862 l 2
EndSplineSet
EndChar

StartChar: zy
Encoding: 60821 60821 41
Width: 1108
VWidth: 2000
GlyphClass: 2
Flags: W
HStem: -13 75<435.235 714.45> 18 59<428.875 532.578> 935 76<415.615 730.553>
VStem: 151 95<579 768.906> 905 98<263.739 745.8>
AnchorPoint: "Top" 568 1335 basechar 0
AnchorPoint: "Bottom" 574 -1 basechar 0
LayerCount: 2
Fore
SplineSet
421 18 m 0x78
 465.922034786 -2.89390650358 515.719489982 -13 570 -13 c 0
 640 -13 701.833333333 0.333333333333 755.5 27 c 0
 809.166666667 53.6666666667 854.333333333 90.1666666667 891 136.5 c 0
 927.666666667 182.833333333 955.5 237.5 974.5 300.5 c 0
 993.5 363.5 1003 431.333333333 1003 504 c 0
 1003 588 992 661.666666667 970 725 c 0
 948 788.333333333 917.5 841.166666667 878.5 883.5 c 0
 839.5 925.833333333 793.5 957.666666667 740.5 979 c 0
 687.5 1000.33333333 630.333333333 1011 569 1011 c 0
 507 1011 450.333333333 1001 399 981 c 0
 347.666666667 961 303.666666667 932.333333333 267 895 c 0
 230.333333333 857.666666667 201.833333333 812.333333333 181.5 759 c 0
 161.166666667 705.666666667 151 635.014875746 151 579 c 2
 151 -506 l 1
 246 -506 l 1
 246 147 l 1
 246 238 l 1
 246 579 l 2
 246 634.333333333 254.333333333 684 271 728 c 0
 287.666666667 772 310.5 809.333333333 339.5 840 c 0
 368.5 870.666666667 402.666666667 894.166666667 442 910.5 c 0
 481.333333333 926.833333333 523.666666667 935 569 935 c 0
 618.333333333 935 663.5 926.5 704.5 909.5 c 0
 745.5 892.5 780.833333333 866.166666667 810.5 830.5 c 0
 840.166666667 794.833333333 863.333333333 750 880 696 c 0
 896.666666667 642 905 578 905 504 c 0
 905 438.666666667 897.5 378.833333333 882.5 324.5 c 0
 867.5 270.166666667 845.166666667 223.5 815.5 184.5 c 0
 785.833333333 145.5 749 115.333333333 705 94 c 0
 661 72.6666666667 609.666666667 62 551 62 c 0xb8
 522.448288786 62 470 75.7400766623 470 75.7400766623 c 1
 470 75.7400766623 454.584009401 80.5849528527 447 77 c 0
 432.799243775 70.2873182445 434 65.8571428571 433 64 c 0
 421 18 l 0x78
EndSplineSet
EndChar

StartChar: jy
Encoding: 60822 60822 42
Width: 1178
VWidth: 2000
GlyphClass: 2
Flags: W
HStem: -6 79<368.469 678.461> 975 20G<163 259 850 946>
VStem: 163 91<-494.654 141.656 191.834 995> 850 96<219.585 995> 864 82<0 174>
AnchorPoint: "Top" 555 1331.1 basechar 0
AnchorPoint: "Bottom" 584 -8 basechar 0
LayerCount: 2
Fore
SplineSet
851 995 m 1xf0
 946 995 l 1
 946 238 l 1xf0
 946 0 l 1
 893 0 l 2
 876.333333333 0 865.059995451 8.56896368736 864 26 c 2xe8
 855 174 l 1
 854.06061865 187.71496771 l 1
 811.840531222 129.07494456 762.986991672 82.6699553233 707.5 48.5 c 0
 648.5 12.1666666667 583.666666667 -6 513 -6 c 0
 446.333333333 -6 391.166666667 6.83333333333 347.5 32.5 c 0
 303.833333333 58.1666666667 270.333333333 95 247 143 c 1
 249.666666667 114.333333333 251.5 85.3333333333 252.5 56 c 0
 253.5 26.6666666667 254 -24 254 -24 c 2
 254 -506 l 1
 206 -506 l 2
 192.666666667 -506 182.166666667 -502.333333333 174.5 -495 c 0
 166.833333333 -487.666666667 163 -477.333213799 163 -464 c 2
 163 995 l 1
 259 995 l 1
 259 374 l 2
 259 327.333333333 264.333333333 285.333333333 275 248 c 0
 285.666666667 210.666666667 301.666666667 179 323 153 c 0
 344.333333333 127 371.166666667 107.166666667 403.5 93.5 c 0
 435.833333333 79.8333333333 474 73 518 73 c 0
 588 73 651 91.5 707 128.5 c 0
 762.534108529 165.19217885 810.200775196 216.471906153 850 282.33918191 c 1
 850 995 l 1
 851 995 l 1xf0
EndSplineSet
EndChar

StartChar: ny
Encoding: 60823 60823 43
Width: 832
VWidth: 2000
GlyphClass: 2
Flags: W
HStem: -16 61.9648<273.969 552.098> 920 75<58 624.702>
VStem: 75.2598 80.3604<143.506 420.458> 686.979 81.1807<162.634 278.362>
AnchorPoint: "Top" 432 1337.1 basechar 0
AnchorPoint: "Bottom" 414 0 basechar 0
LayerCount: 2
Fore
SplineSet
92 920 m 2
 79.7102361915 920 58 939.256803976 58 954 c 2
 58 995 l 1
 821 995 l 1
 821 961 l 2
 821 942.455187118 801 919 801 919 c 2
 425 638 l 2
 425 638 214.239594531 489.402402399 172.83984375 377.209960938 c 0
 161.360026042 346.09989984 155.620117188 312.949834736 155.620117188 277.759765625 c 0
 155.620117188 130.48269229 256.879011449 45.96484375 412.280273438 45.96484375 c 0
 568.690516355 45.96484375 660.841905946 134.418665101 686.979492188 256.33984375 c 0
 690.803574475 274.177627831 705.333586206 285.798920173 727.979492188 282.349609375 c 2
 768.16015625 276.229492188 l 1
 747.082433794 138.582286821 667.300004891 43.3038479232 541.83984375 3.5078125 c 0
 500.839891975 -9.49739583333 456.559944059 -16 409 -16 c 0
 257.234494732 -16 151.330906473 48.2618537726 102.3203125 147.327148438 c 0
 84.2799479167 183.792204019 75.259765625 226.504769123 75.259765625 275.46484375 c 0
 75.259765625 365.887380206 108.504531902 431.764411502 149.879882812 489.665039062 c 0
 185.781917064 539.906312385 327.731300232 656.785623014 360 680 c 2
 689 936 l 1
 667.666782444 930.666584637 646.299607626 925.739901317 624.702148438 924.411132812 c 2
 553 920 l 1
 92 920 l 2
EndSplineSet
EndChar

StartChar: bahebu
Encoding: 60824 60824 44
Width: 0
VWidth: 0
GlyphClass: 4
Flags: W
HStem: -365 203<-80.6051 84.4556>
VStem: -99 202<-346.605 -180.544>
AnchorPoint: "Bottom" 0 0 mark 0
LayerCount: 2
Fore
SplineSet
-99 -265 m 0
 -99 -251 -96.3333333333 -237.666666667 -91 -225 c 0
 -85.6666666667 -212.333333333 -78.5 -201.333333333 -69.5 -192 c 0
 -60.5 -182.666666667 -50 -175.333333333 -38 -170 c 0
 -26 -164.666666667 -13.3333333333 -162 0 -162 c 0
 14 -162 27.3333333333 -164.666666667 40 -170 c 0
 52.6666666667 -175.333333333 63.6666666667 -182.666666667 73 -192 c 0
 82.3333333333 -201.333333333 89.6666666667 -212.333333333 95 -225 c 0
 100.333333333 -237.666666667 103 -251 103 -265 c 0
 103 -278.333333333 100.333333333 -291.166666667 95 -303.5 c 0
 89.6666666667 -315.833333333 82.3333333333 -326.5 73 -335.5 c 0
 63.6666666667 -344.5 52.6666666667 -351.666666667 40 -357 c 0
 27.3333333333 -362.333333333 14 -365 0 -365 c 0
 -13.3333333333 -365 -26 -362.333333333 -38 -357 c 0
 -50 -351.666666667 -60.5 -344.5 -69.5 -335.5 c 0
 -78.5 -326.5 -85.6666666667 -315.833333333 -91 -303.5 c 0
 -96.3333333333 -291.166666667 -99 -278.333333333 -99 -265 c 0
EndSplineSet
EndChar

StartChar: smajibu
Encoding: 60825 60825 45
Width: 740
VWidth: 2000
GlyphClass: 2
Flags: W
HStem: 553 81<138 603>
VStem: 138 465<553 634>
LayerCount: 2
Fore
SplineSet
138 634 m 1
 603 634 l 1
 603 553 l 1
 138 553 l 1
 138 634 l 1
EndSplineSet
Substitution2: "Single Substitution lookup 24 subtable" smajibu.fina
Substitution2: "Single Substitution lookup 23 subtable" smajibu.fina
Substitution2: "Single Substitution lookup 22 subtable" smajibu.fina
Substitution2: "Single Substitution lookup 20 subtable" smajibu.medi
Substitution2: "Single Substitution lookup 19 subtable" smajibu.medi
Substitution2: "Single Substitution lookup 18 subtable" smajibu.medi
Substitution2: "Single Substitution lookup 17 subtable" smajibu.medi
Substitution2: "Single Substitution lookup 16 subtable" smajibu.medi
Substitution2: "Single Substitution lookup 15 subtable" smajibu.medi
Substitution2: "Single Substitution lookup 13 subtable" smajibu.init
Substitution2: "Single Substitution lookup 12 subtable" smajibu.init
Substitution2: "Single Substitution lookup 11 subtable" smajibu.init
EndChar

StartChar: tcenabu
Encoding: 60827 60827 47
Width: 0
VWidth: 2000
GlyphClass: 4
Flags: W
HStem: -273 68<-394 394>
AnchorPoint: "Bottom" -16 0 mark 0
LayerCount: 2
Fore
SplineSet
394 -205 m 5
 394 -273 l 5
 -394 -273 l 5
 -394 -205 l 5
 394 -205 l 5
EndSplineSet
EndChar

StartChar: abu
Encoding: 60832 60832 52
Width: 0
VWidth: 2000
GlyphClass: 4
Flags: W
HStem: 1176 425<-36 36>
VStem: -36 72<1176 1601>
AnchorPoint: "Anchor-1" 0 -70 basechar 0
AnchorPoint: "Top" -1 1338 mark 0
LayerCount: 2
Fore
SplineSet
-36 1601 m 1
 36 1601 l 1
 36 1176 l 1
 -36 1176 l 1
 -36 1601 l 1
EndSplineSet
MultipleSubs2: "Multiple Substitution lookup 26 subtable" denpabu abu
EndChar

StartChar: ebu
Encoding: 60833 60833 53
Width: 0
VWidth: 2000
GlyphClass: 4
Flags: W
HStem: 1306 65<-222.5 212.5>
VStem: -222.5 435<1306 1371>
AnchorPoint: "Top" -0.5 1338 mark 0
LayerCount: 2
Fore
SplineSet
-222.5 1371 m 1
 212.5 1371 l 1
 212.5 1306 l 1
 -222.5 1306 l 1
 -222.5 1371 l 1
EndSplineSet
MultipleSubs2: "Multiple Substitution lookup 27 subtable" denpabu ebu
EndChar

StartChar: ibu
Encoding: 60834 60834 54
Width: 0
VWidth: 2000
GlyphClass: 4
Flags: W
HStem: 1251 176<-75.5967 75.812>
VStem: -88 177<1263.95 1414.05>
AnchorPoint: "Anchor-1" 223 -70 basechar 0
AnchorPoint: "Top" 0 1338 mark 0
LayerCount: 2
Fore
SplineSet
89 1338 m 256
 89 1326 86.5 1314.83333333 81.5 1304.5 c 0
 76.5 1294.16666667 70 1285 62 1277 c 0
 54 1269 44.6666666667 1262.66666667 34 1258 c 0
 23.3333333333 1253.33333333 12 1251 0 1251 c 256
 -12 1251 -23.3333333333 1253.33333333 -34 1258 c 0
 -44.6666666667 1262.66666667 -54 1269 -62 1277 c 0
 -70 1285 -76.3333333333 1294.16666667 -81 1304.5 c 0
 -85.6666666667 1314.83333333 -88 1326 -88 1338 c 256
 -88 1350 -85.6666666667 1361.5 -81 1372.5 c 0
 -76.3333333333 1383.5 -70 1393 -62 1401 c 0
 -54 1409 -44.6666666667 1415.33333333 -34 1420 c 0
 -23.3333333333 1424.66666667 -12 1427 0 1427 c 256
 12 1427 23.3333333333 1424.66666667 34 1420 c 0
 44.6666666667 1415.33333333 54 1409 62 1401 c 0
 70 1393 76.5 1383.5 81.5 1372.5 c 0
 86.5 1361.5 89 1350 89 1338 c 256
EndSplineSet
MultipleSubs2: "Multiple Substitution lookup 28 subtable" denpabu ibu
Substitution2: "Single Substitution lookup 6 subtable" iy
Substitution2: "Single Substitution lookup 4 subtable" iy
EndChar

StartChar: obu
Encoding: 60835 60835 55
Width: 0
VWidth: 2000
GlyphClass: 4
Flags: W
HStem: 1243.5 69<25.6864 168.307> 1348.5 69<-179.277 -38.9575>
VStem: -264.5 61<1246.5 1319.09> 192.5 59<1340.85 1414.5>
AnchorPoint: "Top" 1 1330 mark 0
LayerCount: 2
Fore
SplineSet
103.5 1312.5 m 0
 132.5 1312.83333333 154.333333333 1322 169 1340 c 0
 183.666666667 1358 191.5 1382.83333333 192.5 1414.5 c 1
 251.5 1414.5 l 1
 251.166666667 1390.83333333 248 1368.33333333 242 1347 c 0
 236 1325.66666667 226.666666667 1307.33333333 214 1292 c 0
 201.333363553 1276.6668185 186.00003022 1264.83608933 168 1256.5078125 c 0
 150.000041043 1248.16927984 129.500041043 1243.83334234 106.5 1243.5 c 0
 84.1666666667 1243.16666667 63.3333333333 1248.66666667 44 1260 c 0
 24.6666666667 1271.33333333 6 1283.33333333 -12 1296 c 0
 -30 1308.66666667 -47.5 1320.5 -64.5 1331.5 c 0
 -81.5 1342.5 -98.5 1348.16666667 -115.5 1348.5 c 0
 -143.166666667 1348.83333333 -164.666666667 1339.33333333 -180 1320 c 0
 -195.333333333 1300.66666667 -203.166666667 1276.16666667 -203.5 1246.5 c 1
 -264.5 1246.5 l 1
 -264.833333333 1270.83333333 -261.666666667 1293.33333333 -255 1314 c 0
 -248.333333333 1334.66666667 -238.666666667 1352.66666667 -226 1368 c 0
 -213.333333333 1383.33333333 -198 1395.5 -180 1404.5 c 0
 -162 1413.5 -141.5 1417.83333333 -118.5 1417.5 c 256
 -96.1666666667 1417.16666667 -75.3333333333 1411.66666667 -56 1401 c 0
 -36.6666666667 1390.33333333 -18 1378.33333333 0 1365 c 0
 17.9998372359 1351.66665646 35.3325195275 1339.53254188 51.998046875 1328.59765625 c 0
 68.6658543333 1317.53255266 85.8331720416 1312.16666724 103.5 1312.5 c 0
EndSplineSet
MultipleSubs2: "Multiple Substitution lookup 29 subtable" denpabu obu
EndChar

StartChar: ubu
Encoding: 60836 60836 56
Width: 0
VWidth: 2000
GlyphClass: 4
Flags: W
HStem: 1168 65<-109.949 110.883> 1395 20G<-239.5 -170.5 170.5 239.5>
VStem: -226.5 64.5<1283.99 1415> 170.5 69<1290.96 1415>
AnchorPoint: "Top" -1.5 1337 mark 0
LayerCount: 2
Fore
SplineSet
0.5 1168 m 256
 -43.5 1168 -80.6669921875 1174.5 -111 1187.5 c 0
 -141.333007812 1200.5 -166 1218.33300781 -185 1241 c 0
 -204 1263.66699219 -217.833007812 1290 -226.5 1320 c 0
 -235.166992188 1350 -239.5 1381.66699219 -239.5 1415 c 1
 -170.5 1415 l 1
 -170.5 1390.33300781 -167.666992188 1367 -162 1345 c 0
 -156.333007812 1323 -146.666992188 1303.66699219 -133 1287 c 0
 -119.333007812 1270.33300781 -101.666992188 1257.16699219 -80 1247.5 c 0
 -58.3330078125 1237.83300781 -31.5 1233 0.5 1233 c 256
 32.5 1233 59.3330078125 1237.83300781 81 1247.5 c 0
 102.666992188 1257.16699219 120.166992188 1270.33300781 133.5 1287 c 0
 146.833007812 1303.66699219 156.333007812 1323 162 1345 c 0
 167.666992188 1367 170.5 1390.33300781 170.5 1415 c 1
 239.5 1415 l 1
 239.5 1381.66699219 235.333007812 1350 227 1320 c 0
 218.666992188 1290 205 1263.66699219 186 1241 c 0
 167 1218.33300781 142.333007812 1200.5 112 1187.5 c 0
 81.6669921875 1174.5 44.5 1168 0.5 1168 c 256
EndSplineSet
MultipleSubs2: "Multiple Substitution lookup 30 subtable" denpabu ubu
Substitution2: "Single Substitution lookup 7 subtable" uy
Substitution2: "Single Substitution lookup 5 subtable" uy
EndChar

StartChar: ybu
Encoding: 60837 60837 57
Width: 0
VWidth: 2000
GlyphClass: 4
Flags: W
HStem: 1168 49<-74.0059 73.5068> 1445 50<-74.4766 73.9844>
VStem: -172 58<1252.06 1409.84> 114 58<1253.01 1409.32>
AnchorPoint: "Top" 0 1338 mark 0
LayerCount: 2
Fore
SplineSet
-172 1331 m 256
 -172 1355 -167.5 1377 -158.5 1397 c 0
 -149.5 1417 -137.166666667 1434.16666667 -121.5 1448.5 c 0
 -105.833333333 1462.83333333 -87.6666666667 1474.16666667 -67 1482.5 c 0
 -46.3333333333 1490.83333333 -24.3333333333 1495 -1 1495 c 0
 23 1495 45.5 1490.83333333 66.5 1482.5 c 0
 87.5 1474.16666667 105.833333333 1462.83333333 121.5 1448.5 c 0
 137.166666667 1434.16666667 149.5 1417 158.5 1397 c 0
 167.5 1377 172 1355 172 1331 c 256
 172 1307 167.5 1285.16666667 158.5 1265.5 c 0
 149.5 1245.83333333 137.166666667 1228.66666667 121.5 1214 c 0
 105.833333333 1199.33333333 87.5 1188 66.5 1180 c 0
 45.5 1172 23 1168 -1 1168 c 0
 -24.3333333333 1168 -46.3333333333 1172 -67 1180 c 0
 -87.6666666667 1188 -105.833333333 1199.33333333 -121.5 1214 c 0
 -137.166666667 1228.66666667 -149.5 1245.83333333 -158.5 1265.5 c 0
 -167.5 1285.16666667 -172 1307 -172 1331 c 256
-114 1331 m 256
 -114 1297.66666667 -103.5 1270.33333333 -82.5 1249 c 0
 -61.5 1227.66666667 -34 1217 0 1217 c 0
 33.3333333333 1217 60.6666666667 1227.66666667 82 1249 c 0
 103.333333333 1270.33333333 114 1297.66666667 114 1331 c 256
 114 1364.33333333 103.333333333 1391.66666667 82 1413 c 0
 60.6666666667 1434.33333333 33.3333333333 1445 0 1445 c 0
 -34 1445 -61.5 1434.33333333 -82.5 1413 c 0
 -103.5 1391.66666667 -114 1364.33333333 -114 1331 c 256
EndSplineSet
MultipleSubs2: "Multiple Substitution lookup 31 subtable" denpabu ybu
EndChar

StartChar: aibu
Encoding: 60838 60838 58
Width: 0
VWidth: 2000
GlyphClass: 4
Flags: W
VStem: -90.5 168
AnchorPoint: "Top" -13 1330 mark 0
LayerCount: 2
Fore
SplineSet
-24.5 1443.5 m 0
 -12.3244274809 1444.29393939 -3.15776081425 1466.12727273 3 1509 c 0
 49.4964539007 1514.67785235 74.329787234 1522.51118568 77.5 1532.5 c 1
 77.5 1591.5 l 1
 75.1315789474 1588.1691358 52.6315789474 1585.00246914 10 1582 c 0
 -1.78571428571 1571.13939394 -20.119047619 1561.80606061 -45 1554 c 0
 -54.7731877342 1534.12727874 -66.6039169009 1518.79394541 -80.4921875 1508 c 0
 -84.2993434532 1468.57601856 -88.6352809532 1448.07601856 -93.5 1446.5 c 0
 -87.604 1447.76262626 -82.104 1426.92929293 -77 1384 c 0
 -64.5714285714 1366.37037037 -52.5714285714 1347.7037037 -41 1328 c 0
 -28.8285714286 1309.26760563 -16.9952380952 1291.76760563 -5.5 1275.5 c 0
 0.166666666667 1242.5 5.83333333333 1225.5 11.5 1224.5 c 0
 -0.72480620155 1225.25438596 -10.2248062016 1203.75438596 -17 1160 c 0
 -64.9574468085 1153.8185941 -89.4574468085 1145.98526077 -90.5 1136.5 c 1
 -90.5 1075.5 l 1
 -92.8684210526 1078.92469136 -70.3684210526 1082.09135802 -23 1085 c 0
 -10.5862068966 1096.09876543 7.41379310345 1105.7654321 31 1114 c 0
 41.0507246377 1133.32420091 53.2173913043 1148.65753425 67.5 1160 c 0
 71.3048780488 1202.57692308 75.6382113821 1223.07692308 80.5 1221.5 c 256
 74.604 1222.76262626 69.104 1243.5959596 64 1284 c 0
 51.5714285714 1300.59259259 39.5714285714 1319.25925926 28 1340 c 0
 15.398829343 1359.04569186 3.26471475964 1376.37837416 -8.40234375 1391.99804688 c 0
 -13.6121002471 1427.39912872 -18.9779856637 1444.56644643 -24.5 1443.5 c 0
EndSplineSet
MultipleSubs2: "Multiple Substitution lookup 32 subtable" denpabu aibu
Ligature2: "zlmVV subtable" abu ibu
LCarets2: 1 0
EndChar

StartChar: eibu
Encoding: 60839 60839 59
Width: 0
VWidth: 2000
GlyphClass: 4
Flags: W
HStem: 1400 65<-110.883 109.949>
VStem: -239.5 69<1218 1342.04> 170.5 69<1218 1341.35>
AnchorPoint: "Top" 0.5 1338 mark 0
LayerCount: 2
Fore
SplineSet
-0.5 1465 m 256
 43.5 1465 80.6669921875 1458.5 111 1445.5 c 0
 141.333007812 1432.5 166 1414.66699219 185 1392 c 0
 204 1369.33300781 217.833007812 1343 226.5 1313 c 0
 235.166992188 1283 239.5 1251.33300781 239.5 1218 c 1
 170.5 1218 l 1
 170.5 1242.66699219 167.666992188 1266 162 1288 c 0
 156.333007812 1310 146.666992188 1329.33300781 133 1346 c 0
 119.333007812 1362.66699219 101.666992188 1375.83300781 80 1385.5 c 0
 58.3330078125 1395.16699219 31.5 1400 -0.5 1400 c 256
 -32.5 1400 -59.3330078125 1395.16699219 -81 1385.5 c 0
 -102.666992188 1375.83300781 -120.166992188 1362.66699219 -133.5 1346 c 0
 -146.833007812 1329.33300781 -156.333007812 1310 -162 1288 c 0
 -167.666992188 1266 -170.5 1242.66699219 -170.5 1218 c 1
 -239.5 1218 l 1
 -239.5 1251.33300781 -235.333007812 1283 -227 1313 c 0
 -218.666992188 1343 -205 1369.33300781 -186 1392 c 0
 -167 1414.66699219 -142.333007812 1432.5 -112 1445.5 c 0
 -81.6669921875 1458.5 -44.5 1465 -0.5 1465 c 256
EndSplineSet
MultipleSubs2: "Multiple Substitution lookup 33 subtable" denpabu eibu
Ligature2: "zlmVV subtable" ebu ibu
LCarets2: 1 0
EndChar

StartChar: oibu
Encoding: 60840 60840 60
Width: 0
VWidth: 2000
GlyphClass: 4
Flags: W
HStem: 1206 71<-9.65873 119.764>
VStem: -197.669 59.9199<1174 1262.74> 134.331 49.6689<1298.62 1383>
AnchorPoint: "Top" 0 1330 mark 0
LayerCount: 2
Fore
SplineSet
-102 1332 m 1
 -52.322265625 1360.09765625 22.783203125 1277 69.611328125 1277 c 0
 110.665039062 1277 132.395160557 1319 134.331054688 1383 c 1
 184 1383 l 1
 181.730203836 1285.2089716 140 1206 77 1206 c 0
 39.10546875 1206 10.9104778947 1222.89880644 -11 1242 c 0
 -28.6474609375 1257.38476562 -55.6865234375 1274 -82 1274 c 0
 -117.020507812 1274 -137.249674479 1232.66666667 -137.749023438 1174 c 1
 -197.668945312 1174 l 1
 -197.889648438 1195.33300781 -194.6796875 1224.91699219 -188.0390625 1262.75 c 0
 -176.6796875 1325.58300781 -133 1404.66699219 -59 1500 c 0
 -29.6669921875 1538 -10.1708984375 1561.33105469 -0.5126953125 1569.99414062 c 1
 55 1518.39257812 l 1
 -2.23339842191 1460.6594495 -56.6728515625 1392.14941406 -102 1332 c 1
EndSplineSet
MultipleSubs2: "Multiple Substitution lookup 34 subtable" denpabu oibu
Ligature2: "zlmVV subtable" obu ibu
LCarets2: 1 0
EndChar

StartChar: aubu
Encoding: 60841 60841 61
Width: 0
VWidth: 2000
GlyphClass: 4
Flags: W
HStem: 1304 168<-60.2776 31.9669>
VStem: -71 158<1328.24 1440.54>
AnchorPoint: "Anchor-3" -9 1121 mark 0
AnchorPoint: "Top" 1 1332 mark 0
LayerCount: 2
Fore
SplineSet
-65 1093 m 2
 -69.2823529412 1096.67058824 -71 1101.66666667 -71 1107 c 0
 -71 1110.33333333 -69.0499421491 1115.31881508 -64 1121 c 0
 -58.6666666667 1127 -51.1666666667 1136 -41.5 1148 c 0
 -31.8333333333 1160 -22 1174.16666667 -12 1190.5 c 0
 -2 1206.83333333 7.16666666667 1225.16666667 15.5 1245.5 c 0
 23.8333333333 1265.83333333 29.6666666667 1287.66666667 33 1311 c 1
 23.6666666667 1306.33333333 11.6666666667 1304 -3 1304 c 0
 -26.3333333333 1304 -45.6666666667 1311.83333333 -61 1327.5 c 0
 -76.3333333333 1343.16666667 -84 1363.66666667 -84 1389 c 0
 -84 1411.66666667 -76.3333333333 1431.16666667 -61 1447.5 c 0
 -45.6666666667 1463.83333333 -25.3333333333 1472 0 1472 c 0
 28 1472 49.5 1461.83333333 64.5 1441.5 c 0
 79.5 1421.16666667 87 1392.66666667 87 1356 c 0
 87 1308 74.5 1260 49.5 1212 c 0
 24.5 1164 -9 1120.33333333 -51 1081 c 1
 -65 1093 l 2
EndSplineSet
MultipleSubs2: "Multiple Substitution lookup 35 subtable" denpabu aubu
Ligature2: "zlmVV subtable" abu ubu
LCarets2: 1 0
EndChar

StartChar: iy
Encoding: 60842 60842 62
Width: 1003
VWidth: 2000
GlyphClass: 2
Flags: W
HStem: 0 21G<39 115 883.333 963> 975 20G<450.558 551.442>
AnchorPoint: "Top" 495 1338 basechar 0
AnchorPoint: "Bottom" 501 0 basechar 0
LayerCount: 2
Fore
SplineSet
39 0 m 1
 459 995 l 1
 543 995 l 1
 963 0 l 1
 888 0 l 2
 878.666666667 0 871 2.5 865 7.5 c 0
 859 12.5 855 18 853 24 c 2
 524 809 l 2
 514 838.333333333 506 867.333333333 500 896 c 1
 494 867.333333333 485.666666667 838.333333333 475 809 c 2
 145 24 l 2
 141.666666667 16.6666666667 137.166666667 10.8333333333 131.5 6.5 c 0
 125.833333333 2.16666666667 119 0 111 0 c 2
 39 0 l 1
EndSplineSet
EndChar

StartChar: uy
Encoding: 60843 60843 63
Width: 1003
VWidth: 2000
GlyphClass: 2
Flags: W
HStem: 0 21G<450.558 551.442> 975 20G<39 118.667 887 963>
AnchorPoint: "Top" 495 1338 basechar 0
AnchorPoint: "Bottom" 501 0 basechar 0
LayerCount: 2
Fore
SplineSet
963 995 m 1
 543 0 l 1
 459 0 l 1
 39 995 l 1
 114 995 l 2
 123.333333333 995 131 992.5 137 987.5 c 0
 143 982.5 147 977 149 971 c 2
 478 186 l 2
 488 156.666666667 496 127.666666667 502 99 c 1
 508 127.666666667 516.333333333 156.666666667 527 186 c 2
 857 971 l 2
 860.333333333 978.333333333 864.833333333 984.166666667 870.5 988.5 c 0
 876.166666667 992.833333333 883 995 891 995 c 2
 963 995 l 1
EndSplineSet
EndChar

StartChar: seplimeabu
Encoding: 60848 60848 68
Width: 1111
VWidth: 2000
GlyphClass: 3
Flags: W
AnchorPoint: "Bottom" 617 0 basechar 0
LayerCount: 2
Fore
SplineSet
985 939 m 1
 985 1013 l 1
 141 1013 l 1
 141 0 l 1
 243 0 l 1
 243 939 l 1
 985 939 l 1
EndSplineSet
Ligature2: "zlmSF subtable" slakabu seplimeabu
LCarets2: 1 0
EndChar

StartChar: seplimeebu
Encoding: 60849 60849 69
Width: 1111
VWidth: 2000
GlyphClass: 3
Flags: W
AnchorPoint: "Bottom" 622 0 basechar 0
LayerCount: 2
Fore
SplineSet
985 485 m 1
 985 559 l 1
 243 559 l 1
 243 1013 l 1
 141 1013 l 1
 141 0 l 1
 243 0 l 1
 243 485 l 1
 985 485 l 1
EndSplineSet
Ligature2: "zlmSF subtable" slakabu seplimeebu
LCarets2: 1 0
EndChar

StartChar: seplimeibu
Encoding: 60850 60850 70
Width: 1111
VWidth: 2000
GlyphClass: 3
Flags: W
HStem: 0 21G<141 253 883 985> 939 74<253 883>
VStem: 141 112<0 939> 883 102<0 939>
AnchorPoint: "Bottom" 576 0 basechar 0
LayerCount: 2
Fore
SplineSet
253 939 m 1
 253 0 l 1
 141 0 l 1
 141 939 l 1
 141 1013 l 1
 985 1013 l 1
 985 939 l 1
 985 0 l 1
 883 0 l 1
 883 939 l 1
 253 939 l 1
EndSplineSet
Ligature2: "zlmSF subtable" slakabu seplimeibu
LCarets2: 1 0
EndChar

StartChar: seplimeobu
Encoding: 60851 60851 71
Width: 1111
VWidth: 2000
GlyphClass: 3
Flags: W
AnchorPoint: "Bottom" 563 0 basechar 0
LayerCount: 2
Fore
SplineSet
141 74 m 5
 141 0 l 1
 985 0 l 1
 985 1013 l 1
 883 1013 l 1
 883 74 l 5
 141 74 l 5
EndSplineSet
Ligature2: "zlmSF subtable" slakabu seplimeobu
LCarets2: 1 0
EndChar

StartChar: seplimeubu
Encoding: 60852 60852 72
Width: 1111
VWidth: 2000
GlyphClass: 3
Flags: W
AnchorPoint: "Bottom" 578 0 basechar 0
LayerCount: 2
Fore
SplineSet
243 74 m 1
 243 1013 l 1
 141 1013 l 1
 141 144 l 1
 141 0 l 1
 985 0 l 1
 985 144 l 1
 985 1013 l 1
 883 1013 l 1
 883 74 l 1
 243 74 l 1
EndSplineSet
Ligature2: "zlmSF subtable" slakabu seplimeubu
LCarets2: 1 0
EndChar

StartChar: seplimeybu
Encoding: 60853 60853 73
Width: 1111
VWidth: 2000
GlyphClass: 3
Flags: W
AnchorPoint: "Bottom" 555 0 basechar 0
LayerCount: 2
Fore
SplineSet
972.5 485 m 1
 972.5 559 l 1
 603.5 559 l 1
 603.5 1013 l 1
 501.5 1013 l 1
 501.5 559 l 1
 138.5 559 l 1
 138.5 483 l 1
 501.5 483 l 1
 501.5 0 l 1
 603.5 0 l 1
 603.5 485 l 1
 972.5 485 l 1
EndSplineSet
Ligature2: "zlmSF subtable" slakabu seplimeybu
LCarets2: 1 0
EndChar

StartChar: seplimeaibu
Encoding: 60854 60854 74
Width: 1111
VWidth: 2000
GlyphClass: 3
Flags: W
HStem: 0 74<243 985> 939 74<243 985>
VStem: 141 102<74 939>
AnchorPoint: "LigaBottom" 581 0 basechar 0
LayerCount: 2
Fore
SplineSet
985 74 m 1
 985 0 l 1
 243 0 l 1
 141 0 l 1
 141 1013 l 1
 243 1013 l 1
 985 1013 l 1
 985 939 l 1
 243 939 l 1
 243 74 l 1
 985 74 l 1
EndSplineSet
Ligature2: "zlmSFF subtable" slakabu seplimeaibu
Ligature2: "zlmFF subtable" seplimeabu seplimeibu
LCarets2: 1 0
EndChar

StartChar: seplimeeibu
Encoding: 60855 60855 75
Width: 850
VWidth: 2000
GlyphClass: 3
Flags: W
HStem: -16 70<251.441 558.847> 939 72<298.519 604.982>
VStem: 112 90<649.538 860.897> 666 89<142.957 380.629>
AnchorPoint: "Anchor-3" 439 1120 basechar 0
AnchorPoint: "Anchor-1" 419 -70 basechar 0
LayerCount: 2
Fore
SplineSet
711 872 m 2
 705.666666667 862.666666667 698 858 688 858 c 0
 680.666666667 858 671.333333333 862.166666667 660 870.5 c 0
 648.666666667 878.833333333 633.5 888.166666667 614.5 898.5 c 0
 595.5 908.833333333 572 918.166666667 544 926.5 c 0
 516 934.833333333 482 939 442 939 c 0
 406 939 373.166666667 933.833333333 343.5 923.5 c 0
 313.833333333 913.166666667 288.5 899.333333333 267.5 882 c 0
 246.5 864.666666667 230.333333333 844.5 219 821.5 c 0
 207.666666667 798.5 202 774.333333333 202 749 c 0
 202 717.666666667 210 691.666666667 226 671 c 0
 242 650.333333333 262.833333333 632.666666667 288.5 618 c 0
 314.166666667 603.333333333 343.666666667 590.666666667 377 580 c 0
 410.333333333 569.333333333 444.166666667 558.666666667 478.5 548 c 0
 512.833333333 537.333333333 546.666666667 525.5 580 512.5 c 0
 613.333333333 499.5 642.833333333 483.333333333 668.5 464 c 0
 694.166666667 444.666666667 715 421 731 393 c 0
 747 365 755 331 755 291 c 0
 755 247.666666667 747.333333333 207.333333333 732 170 c 0
 716.666666667 132.666666667 694.166666667 100.333333333 664.5 73 c 0
 634.833333333 45.6666666667 598.333333333 24 555 8 c 0
 511.666666667 -8 462 -16 406 -16 c 0
 336 -16 275.666666667 -4.83333333333 225 17.5 c 0
 174.333333333 39.8333333333 129 69 89 105 c 1
 111 139 l 2
 114.333333333 144.333333333 118.166666667 148.333333333 122.5 151 c 0
 126.833333333 153.666666667 132.666666667 155 140 155 c 0
 148.666666667 155 159.166666667 149.666666667 171.5 139 c 0
 183.833333333 128.333333333 200.333333333 116.833333333 221 104.5 c 0
 241.666666667 92.1666666667 267.166666667 80.6666666667 297.5 70 c 0
 327.833333333 59.3333333333 365.333333333 54 410 54 c 0
 452 54 489 59.8333333333 521 71.5 c 0
 553 83.1666666667 579.666666667 99 601 119 c 0
 622.333333333 139 638.5 162.5 649.5 189.5 c 0
 660.5 216.5 666 245 666 275 c 0
 666 308.333333333 658 336 642 358 c 0
 626 380 605 398.666666667 579 414 c 0
 553 429.333333333 523.5 442.333333333 490.5 453 c 0
 457.5 463.666666667 423.666666667 474.333333333 389 485 c 0
 354.333333333 495.666666667 320.5 507.333333333 287.5 520 c 0
 254.5 532.666666667 225 548.666666667 199 568 c 0
 173 587.333333333 152 610.833333333 136 638.5 c 0
 120 666.166666667 112 700.666666667 112 742 c 0
 112 777.333333333 119.666666667 811.333333333 135 844 c 0
 150.333333333 876.666666667 172.166666667 905.333333333 200.5 930 c 0
 228.833333333 954.666666667 263.333333333 974.333333333 304 989 c 0
 344.666666667 1003.66666667 390.333333333 1011 441 1011 c 0
 501.666666667 1011 555.5 1002.33333333 602.5 985 c 0
 649.5 967.666666667 692.333333333 941 731 905 c 1
 711 872 l 2
EndSplineSet
Ligature2: "zlmSFF subtable" slakabu seplimeeibu
Ligature2: "zlmFF subtable" seplimeebu seplimeibu
EndChar

StartChar: seplimeoibu
Encoding: 60856 60856 76
Width: 1111
VWidth: 2000
GlyphClass: 3
Flags: W
AnchorPoint: "Bottom" 572 0 basechar 0
LayerCount: 2
Fore
SplineSet
141 74 m 1
 141 0 l 1
 883 0 l 1
 985 0 l 1
 985 1013 l 1
 883 1013 l 1
 141 1013 l 1
 141 939 l 1
 883 939 l 1
 883 74 l 1
 141 74 l 1
EndSplineSet
Ligature2: "zlmSFF subtable" slakabu seplimeoibu
Ligature2: "zlmFF subtable" seplimeobu seplimeibu
LCarets2: 1 0
EndChar

StartChar: seplimeaubu
Encoding: 60857 60857 77
Width: 938
VWidth: 2000
GlyphClass: 3
Flags: W
HStem: 0 21G<43 133 798.333 894> 975 20G<57 152.667 789.333 880>
AnchorPoint: "Anchor-3" 468 1120 basechar 0
AnchorPoint: "Anchor-1" 469 -70 basechar 0
LayerCount: 2
Fore
SplineSet
894 0 m 1
 803 0 l 2
 793.666666667 0 786.333333333 2.83333333333 781 8.5 c 0
 775.666666667 14.1666666667 771.333333333 19.6666666667 768 25 c 2
 466 466 l 1
 463.333333333 454 458.333333333 442.333333333 451 431 c 2
 163 25 l 2
 158.333333333 19 153.5 13.3333333333 148.5 8 c 0
 143.5 2.66666666667 137 0 129 0 c 2
 43 0 l 1
 405 509 l 1
 57 995 l 1
 148 995 l 2
 157.333333333 995 164.333333333 993 169 989 c 0
 173.666666667 985 177.666666667 980.333333333 181 975 c 2
 473 554 l 1
 474.333333333 559.333333333 476.5 565 479.5 571 c 0
 482.5 577 485.666666667 583 489 589 c 2
 762 974 l 2
 766 980 770.333333333 985 775 989 c 0
 779.666666667 993 785.666666667 995 793 995 c 2
 880 995 l 1
 533 515 l 1
 894 0 l 1
EndSplineSet
Ligature2: "zlmSFF subtable" slakabu seplimeaubu
Ligature2: "zlmFF subtable" seplimeabu seplimeubu
EndChar

StartChar: denpabu.cas
Encoding: 66813 -1 84
Width: 498
VWidth: 2000
GlyphClass: 3
Flags: W
HStem: 694.436 105.012<104.558 506.966>
VStem: 86.3945 650.605
AnchorPoint: "Top" 223 1337.1 basechar 0
AnchorPoint: "Bottom" 223 0 basechar 0
LayerCount: 2
Fore
SplineSet
673 839 m 1
 647.211747101 802.911360981 589.320065172 771.479686019 502.9375 735.567382812 c 0
 436.979166667 708.146158854 354.561523438 694.435546875 255.684570312 694.435546875 c 0
 223.228190104 694.435546875 192.531619274 696.016507215 163.615234375 699.356445312 c 0
 135.205078125 702.637912327 109.46484375 707.560112847 86.39453125 714.123046875 c 1
 104.21484375 789.603515625 l 1
 111.404947917 801.791015625 126.75 807.884765625 150.25 807.884765625 c 0
 164.083333333 807.884765625 184.380238632 806.49732121 211.134765625 803.666015625 c 0
 237.711588542 800.853515625 267.411783855 799.447265625 300.235351562 799.447265625 c 0
 348.745117187 799.447265625 391.991800167 800.950969948 428.6875 810.641601562 c 0
 465.5625 818.358886719 497.257348034 832.047811512 528.182617188 844.171875 c 0
 557.394205729 858.67988377 589.241980191 870.798065693 606.14453125 897.983398438 c 0
 640.71484375 940.086934952 665 973.092773438 673 995 c 1
 737 964 l 1
 673 839 l 1
EndSplineSet
LCarets2: 2 0 0
EndChar

StartChar: smajibu.init
Encoding: 66825 -1 87
Width: 844
VWidth: 2000
GlyphClass: 2
Flags: W
HStem: 553 81<138 864>
LayerCount: 2
Fore
SplineSet
138 634 m 1
 864 634 l 1
 864 553 l 1
 138 553 l 1
 138 634 l 1
EndSplineSet
EndChar

StartChar: smajibu.medi
Encoding: 66826 -1 88
Width: 844
VWidth: 2000
GlyphClass: 2
Flags: W
HStem: 553 81<-20 864>
LayerCount: 2
Fore
SplineSet
-20 634 m 1
 864 634 l 1
 864 553 l 1
 -20 553 l 1
 -20 634 l 1
EndSplineSet
EndChar

StartChar: smajibu.fina
Encoding: 66827 -1 89
Width: 844
VWidth: 2000
GlyphClass: 2
Flags: W
HStem: 553 81<-20 603>
VStem: -20 623<553 634>
LayerCount: 2
Fore
SplineSet
-20 634 m 1
 603 634 l 1
 603 553 l 1
 -20 553 l 1
 -20 634 l 1
EndSplineSet
EndChar

